<mxfile host="app.diagrams.net" agent="Mozilla/5.0 (Windows NT 10.0; Win64; x64) AppleWebKit/537.36 (KHTML, like Gecko) Chrome/137.0.0.0 Safari/537.36 Edg/137.0.0.0" version="26.2.13">
  <diagram name="第 1 页" id="3qWESAbCp9ocAssNezj_">
    <mxGraphModel dx="3239" dy="2415" grid="1" gridSize="10" guides="1" tooltips="1" connect="1" arrows="1" fold="1" page="1" pageScale="1" pageWidth="827" pageHeight="1169" math="0" shadow="0">
      <root>
        <mxCell id="0" />
        <mxCell id="1" parent="0" />
        <UserObject label="" plantUmlData="{&#xa;  &quot;data&quot;: &quot;@startuml\nskinparam sequenceArrowThickness 2\nskinparam roundcorner 5\n\nactor \&quot;用户\&quot; as User\nparticipant \&quot;界面层\&quot; as UI\nparticipant \&quot;游戏管理器\&quot; as GameMgr\nparticipant \&quot;角色控制器\&quot; as CharCtrl\nparticipant \&quot;轨道管理器\&quot; as TrackMgr\nparticipant \&quot;碰撞系统\&quot; as Collision\nparticipant \&quot;数据管理器\&quot; as DataMgr\n\n== 账户验证阶段 ==\n\nUser -&gt; UI: 1.1: 登录请求\nactivate UI\nUI -&gt; GameMgr: 1.2: 发送验证请求\nactivate GameMgr\nGameMgr -&gt; DataMgr: 1.3: 查询用户数据\nactivate DataMgr\nDataMgr -&gt; DataMgr: 1.4: 执行验证\nDataMgr --&gt; GameMgr: 1.5: 返回验证结果\ndeactivate DataMgr\nGameMgr --&gt; UI: 1.6: 返回验证状态\ndeactivate GameMgr\nUI --&gt; User: 1.7: 显示主界面\ndeactivate UI\n\n== 游戏准备阶段 ==\n\nUser -&gt; UI: 2.1: 选择游戏设置\nactivate UI\nUI -&gt; GameMgr: 2.2: 提交游戏设置\nactivate GameMgr\nGameMgr -&gt; DataMgr: 2.3: 加载游戏资源\nactivate DataMgr\nDataMgr --&gt; GameMgr: 2.4: 返回资源数据\ndeactivate DataMgr\nGameMgr -&gt; CharCtrl: 2.5: 初始化角色\nactivate CharCtrl\nCharCtrl --&gt; GameMgr: 2.6: 角色准备完成\ndeactivate CharCtrl\nGameMgr -&gt; TrackMgr: 2.7: 初始化轨道环境\nactivate TrackMgr\nTrackMgr --&gt; GameMgr: 2.8: 环境准备完成\ndeactivate TrackMgr\nGameMgr --&gt; UI: 2.9: 初始化完成\ndeactivate GameMgr\nUI --&gt; User: 2.10: 显示游戏界面\ndeactivate UI\n\n== 游戏运行阶段 ==\n\nUser -&gt; UI: 3.1: 游戏操作\nactivate UI\nUI -&gt; CharCtrl: 3.2: 传递控制指令\nactivate CharCtrl\nCharCtrl -&gt; CharCtrl: 3.3: 更新角色状态\nCharCtrl -&gt; Collision: 3.4: 检测碰撞\nactivate Collision\nCollision -&gt; Collision: 3.5: 计算碰撞结果\nCollision --&gt; CharCtrl: 3.6: 返回碰撞结果\ndeactivate Collision\nCharCtrl -&gt; GameMgr: 3.7: 发送状态更新\nactivate GameMgr\nGameMgr -&gt; TrackMgr: 3.8: 生成新轨道段落\nactivate TrackMgr\nTrackMgr --&gt; GameMgr: 3.9: 轨道生成完成\ndeactivate TrackMgr\nGameMgr -&gt; DataMgr: 3.10: 更新游戏数据\nactivate DataMgr\nDataMgr --&gt; GameMgr: 3.11: 数据更新确认\ndeactivate DataMgr\nGameMgr --&gt; CharCtrl: 3.12: 状态更新确认\ndeactivate GameMgr\nCharCtrl --&gt; UI: 3.13: 返回状态更新\ndeactivate CharCtrl\nUI --&gt; User: 3.14: 更新游戏画面\ndeactivate UI\n\n== 成绩记录阶段 ==\n\nGameMgr -&gt; GameMgr: 4.1: 统计游戏结果\nactivate GameMgr\nGameMgr -&gt; DataMgr: 4.2: 保存游戏成绩\nactivate DataMgr\nDataMgr -&gt; DataMgr: 4.3: 执行数据持久化\nDataMgr --&gt; GameMgr: 4.4: 返回保存结果\ndeactivate DataMgr\nGameMgr -&gt; UI: 4.5: 发送结果数据\nactivate UI\nUI --&gt; GameMgr: 4.6: 确认接收\ndeactivate GameMgr\nUI --&gt; User: 4.7: 显示最终成绩\nUser -&gt; UI: 4.8: 选择后续操作\nUI -&gt; GameMgr: 4.9: 传递用户选择\nactivate GameMgr\nGameMgr --&gt; UI: 4.10: 返回主菜单\ndeactivate GameMgr\nUI --&gt; User: 4.11: 更新界面显示\ndeactivate UI\n\n@enduml&quot;,&#xa;  &quot;format&quot;: &quot;svg&quot;&#xa;}" id="0m7h7ehlDU3BD4L2Jp1m-1">
          <mxCell style="shape=image;noLabel=1;verticalAlign=top;aspect=fixed;imageAspect=0;image=data:image/svg+xml,PHN2ZyB4bWxucz0iaHR0cDovL3d3dy53My5vcmcvMjAwMC9zdmciIHhtbG5zOnhsaW5rPSJodHRwOi8vd3d3LnczLm9yZy8xOTk5L3hsaW5rIiBjb250ZW50U3R5bGVUeXBlPSJ0ZXh0L2NzcyIgZGF0YS1kaWFncmFtLXR5cGU9IlNFUVVFTkNFIiBoZWlnaHQ9IjE1ODRweCIgcHJlc2VydmVBc3BlY3RSYXRpbz0ibm9uZSIgc3R5bGU9IndpZHRoOjEwMDRweDtoZWlnaHQ6MTU4NHB4O2JhY2tncm91bmQ6I0ZGRkZGRjsiIHZlcnNpb249IjEuMSIgdmlld0JveD0iMCAwIDEwMDQgMTU4NCIgd2lkdGg9IjEwMDRweCIgem9vbUFuZFBhbj0ibWFnbmlmeSI+PGRlZnMvPjxnPjxnPjx0aXRsZT4mIzMwMDI4OyYjMzg3NTQ7JiMyMzYxODs8L3RpdGxlPjxyZWN0IGZpbGw9IiNGRkZGRkYiIGhlaWdodD0iMTgwLjQ4NDQiIHN0eWxlPSJzdHJva2U6IzE4MTgxODtzdHJva2Utd2lkdGg6MTsiIHdpZHRoPSIxMCIgeD0iMTYzIiB5PSIxNTEuODEyNSIvPjwvZz48Zz48dGl0bGU+JiMzMDAyODsmIzM4NzU0OyYjMjM2MTg7PC90aXRsZT48cmVjdCBmaWxsPSIjRkZGRkZGIiBoZWlnaHQ9IjI1MS4yMjY2IiBzdHlsZT0ic3Ryb2tlOiMxODE4MTg7c3Ryb2tlLXdpZHRoOjE7IiB3aWR0aD0iMTAiIHg9IjE2MyIgeT0iNDAyLjEyNSIvPjwvZz48Zz48dGl0bGU+JiMzMDAyODsmIzM4NzU0OyYjMjM2MTg7PC90aXRsZT48cmVjdCBmaWxsPSIjRkZGRkZGIiBoZWlnaHQ9IjM4OC44ODI4IiBzdHlsZT0ic3Ryb2tlOiMxODE4MTg7c3Ryb2tlLXdpZHRoOjE7IiB3aWR0aD0iMTAiIHg9IjE2MyIgeT0iNzIzLjE3OTciLz48L2c+PGc+PHRpdGxlPiYjMzAwMjg7JiMzODc1NDsmIzIzNjE4OzwvdGl0bGU+PHJlY3QgZmlsbD0iI0ZGRkZGRiIgaGVpZ2h0PSIxNjcuNDg0NCIgc3R5bGU9InN0cm9rZTojMTgxODE4O3N0cm9rZS13aWR0aDoxOyIgd2lkdGg9IjEwIiB4PSIxNjMiIHk9IjEzMTkuNTQ2OSIvPjwvZz48Zz48dGl0bGU+JiMyODIxNjsmIzI1MTAzOyYjMzE2NDk7JiMyOTcwMjsmIzIyMTIwOzwvdGl0bGU+PHJlY3QgZmlsbD0iI0ZGRkZGRiIgaGVpZ2h0PSIxMjQuNjU2MyIgc3R5bGU9InN0cm9rZTojMTgxODE4O3N0cm9rZS13aWR0aDoxOyIgd2lkdGg9IjEwIiB4PSIzMDcuNSIgeT0iMTc5LjcyNjYiLz48L2c+PGc+PHRpdGxlPiYjMjgyMTY7JiMyNTEwMzsmIzMxNjQ5OyYjMjk3MDI7JiMyMjEyMDs8L3RpdGxlPjxyZWN0IGZpbGw9IiNGRkZGRkYiIGhlaWdodD0iMTk1LjM5ODQiIHN0eWxlPSJzdHJva2U6IzE4MTgxODtzdHJva2Utd2lkdGg6MTsiIHdpZHRoPSIxMCIgeD0iMzA3LjUiIHk9IjQzMC4wMzkxIi8+PC9nPjxnPjx0aXRsZT4mIzI4MjE2OyYjMjUxMDM7JiMzMTY0OTsmIzI5NzAyOyYjMjIxMjA7PC90aXRsZT48cmVjdCBmaWxsPSIjRkZGRkZGIiBoZWlnaHQ9IjEzOS41NzAzIiBzdHlsZT0ic3Ryb2tlOiMxODE4MTg7c3Ryb2tlLXdpZHRoOjE7IiB3aWR0aD0iMTAiIHg9IjMwNy41IiB5PSI5MTYuNjY0MSIvPjwvZz48Zz48dGl0bGU+JiMyODIxNjsmIzI1MTAzOyYjMzE2NDk7JiMyOTcwMjsmIzIyMTIwOzwvdGl0bGU+PHJlY3QgZmlsbD0iI0ZGRkZGRiIgaGVpZ2h0PSIxNTcuNTcwMyIgc3R5bGU9InN0cm9rZTojMTgxODE4O3N0cm9rZS13aWR0aDoxOyIgd2lkdGg9IjEwIiB4PSIzMDcuNSIgeT0iMTE4OS44OTA2Ii8+PC9nPjxnPjx0aXRsZT4mIzI4MjE2OyYjMjUxMDM7JiMzMTY0OTsmIzI5NzAyOyYjMjIxMjA7PC90aXRsZT48cmVjdCBmaWxsPSIjRkZGRkZGIiBoZWlnaHQ9IjI3LjkxNDEiIHN0eWxlPSJzdHJva2U6IzE4MTgxODtzdHJva2Utd2lkdGg6MTsiIHdpZHRoPSIxMCIgeD0iMzA3LjUiIHk9IjE0MzEuMjAzMSIvPjwvZz48Zz48dGl0bGU+JiMzNTI4MjsmIzMzMzk0OyYjMjU1MTE7JiMyMTA0NjsmIzIyMTIwOzwvdGl0bGU+PHJlY3QgZmlsbD0iI0ZGRkZGRiIgaGVpZ2h0PSIyNy45MTQxIiBzdHlsZT0ic3Ryb2tlOiMxODE4MTg7c3Ryb2tlLXdpZHRoOjE7IiB3aWR0aD0iMTAiIHg9IjQ1OC41IiB5PSI1MTMuNzgxMyIvPjwvZz48Zz48dGl0bGU+JiMzNTI4MjsmIzMzMzk0OyYjMjU1MTE7JiMyMTA0NjsmIzIyMTIwOzwvdGl0bGU+PHJlY3QgZmlsbD0iI0ZGRkZGRiIgaGVpZ2h0PSIzMzMuMDU0NyIgc3R5bGU9InN0cm9rZTojMTgxODE4O3N0cm9rZS13aWR0aDoxOyIgd2lkdGg9IjEwIiB4PSI0NTguNSIgeT0iNzUxLjA5MzgiLz48L2c+PGc+PHRpdGxlPiYjMzY3MTI7JiMzNjk0NzsmIzMxNjQ5OyYjMjk3MDI7JiMyMjEyMDs8L3RpdGxlPjxyZWN0IGZpbGw9IiNGRkZGRkYiIGhlaWdodD0iMjcuOTE0MSIgc3R5bGU9InN0cm9rZTojMTgxODE4O3N0cm9rZS13aWR0aDoxOyIgd2lkdGg9IjEwIiB4PSI2MDMiIHk9IjU2OS42MDk0Ii8+PC9nPjxnPjx0aXRsZT4mIzM2NzEyOyYjMzY5NDc7JiMzMTY0OTsmIzI5NzAyOyYjMjIxMjA7PC90aXRsZT48cmVjdCBmaWxsPSIjRkZGRkZGIiBoZWlnaHQ9IjI3LjkxNDEiIHN0eWxlPSJzdHJva2U6IzE4MTgxODtzdHJva2Utd2lkdGg6MTsiIHdpZHRoPSIxMCIgeD0iNjAzIiB5PSI5NDQuNTc4MSIvPjwvZz48Zz48dGl0bGU+JiMzMDg5NjsmIzI1NzU4OyYjMzE5OTU7JiMzMjQ3OTs8L3RpdGxlPjxyZWN0IGZpbGw9IiNGRkZGRkYiIGhlaWdodD0iNjguODI4MSIgc3R5bGU9InN0cm9rZTojMTgxODE4O3N0cm9rZS13aWR0aDoxOyIgd2lkdGg9IjEwIiB4PSI2OTAiIHk9IjgxOS45MjE5Ii8+PC9nPjxnPjx0aXRsZT4mIzI1OTY4OyYjMjU0NTQ7JiMzMTY0OTsmIzI5NzAyOyYjMjIxMjA7PC90aXRsZT48cmVjdCBmaWxsPSIjRkZGRkZGIiBoZWlnaHQ9IjY4LjgyODEiIHN0eWxlPSJzdHJva2U6IzE4MTgxODtzdHJva2Utd2lkdGg6MTsiIHdpZHRoPSIxMCIgeD0iODM0LjUiIHk9IjIwNy42NDA2Ii8+PC9nPjxnPjx0aXRsZT4mIzI1OTY4OyYjMjU0NTQ7JiMzMTY0OTsmIzI5NzAyOyYjMjIxMjA7PC90aXRsZT48cmVjdCBmaWxsPSIjRkZGRkZGIiBoZWlnaHQ9IjI3LjkxNDEiIHN0eWxlPSJzdHJva2U6IzE4MTgxODtzdHJva2Utd2lkdGg6MTsiIHdpZHRoPSIxMCIgeD0iODM0LjUiIHk9IjQ1Ny45NTMxIi8+PC9nPjxnPjx0aXRsZT4mIzI1OTY4OyYjMjU0NTQ7JiMzMTY0OTsmIzI5NzAyOyYjMjIxMjA7PC90aXRsZT48cmVjdCBmaWxsPSIjRkZGRkZGIiBoZWlnaHQ9IjI3LjkxNDEiIHN0eWxlPSJzdHJva2U6IzE4MTgxODtzdHJva2Utd2lkdGg6MTsiIHdpZHRoPSIxMCIgeD0iODM0LjUiIHk9IjEwMDAuNDA2MyIvPjwvZz48Zz48dGl0bGU+JiMyNTk2ODsmIzI1NDU0OyYjMzE2NDk7JiMyOTcwMjsmIzIyMTIwOzwvdGl0bGU+PHJlY3QgZmlsbD0iI0ZGRkZGRiIgaGVpZ2h0PSI2OC44MjgxIiBzdHlsZT0ic3Ryb2tlOiMxODE4MTg7c3Ryb2tlLXdpZHRoOjE7IiB3aWR0aD0iMTAiIHg9IjgzNC41IiB5PSIxMjIyLjgwNDciLz48L2c+PGc+PHRpdGxlPiYjMjk5OTI7JiMyNTE0Mzs8L3RpdGxlPjxyZWN0IGZpbGw9IiMwMDAwMDAiIGZpbGwtb3BhY2l0eT0iMC4wMDAwMCIgaGVpZ2h0PSIxNDI1LjA0NjkiIHdpZHRoPSI4IiB4PSIxOCIgeT0iNzkuOTg0NCIvPjxsaW5lIHN0eWxlPSJzdHJva2U6IzE4MTgxODtzdHJva2Utd2lkdGg6MC41O3N0cm9rZS1kYXNoYXJyYXk6NS4wLDUuMDsiIHgxPSIyMiIgeDI9IjIyIiB5MT0iNzkuOTg0NCIgeTI9IjE1MDUuMDMxMyIvPjwvZz48Zz48dGl0bGU+JiMzMDAyODsmIzM4NzU0OyYjMjM2MTg7PC90aXRsZT48cmVjdCBmaWxsPSIjMDAwMDAwIiBmaWxsLW9wYWNpdHk9IjAuMDAwMDAiIGhlaWdodD0iMTQyNS4wNDY5IiB3aWR0aD0iOCIgeD0iMTY0IiB5PSI3OS45ODQ0Ii8+PGxpbmUgc3R5bGU9InN0cm9rZTojMTgxODE4O3N0cm9rZS13aWR0aDowLjU7c3Ryb2tlLWRhc2hhcnJheTo1LjAsNS4wOyIgeDE9IjE2OCIgeDI9IjE2OCIgeTE9Ijc5Ljk4NDQiIHkyPSIxNTA1LjAzMTMiLz48L2c+PGc+PHRpdGxlPiYjMjgyMTY7JiMyNTEwMzsmIzMxNjQ5OyYjMjk3MDI7JiMyMjEyMDs8L3RpdGxlPjxyZWN0IGZpbGw9IiMwMDAwMDAiIGZpbGwtb3BhY2l0eT0iMC4wMDAwMCIgaGVpZ2h0PSIxNDI1LjA0NjkiIHdpZHRoPSI4IiB4PSIzMDguNSIgeT0iNzkuOTg0NCIvPjxsaW5lIHN0eWxlPSJzdHJva2U6IzE4MTgxODtzdHJva2Utd2lkdGg6MC41O3N0cm9rZS1kYXNoYXJyYXk6NS4wLDUuMDsiIHgxPSIzMTIuNSIgeDI9IjMxMi41IiB5MT0iNzkuOTg0NCIgeTI9IjE1MDUuMDMxMyIvPjwvZz48Zz48dGl0bGU+JiMzNTI4MjsmIzMzMzk0OyYjMjU1MTE7JiMyMTA0NjsmIzIyMTIwOzwvdGl0bGU+PHJlY3QgZmlsbD0iIzAwMDAwMCIgZmlsbC1vcGFjaXR5PSIwLjAwMDAwIiBoZWlnaHQ9IjE0MjUuMDQ2OSIgd2lkdGg9IjgiIHg9IjQ1OS41IiB5PSI3OS45ODQ0Ii8+PGxpbmUgc3R5bGU9InN0cm9rZTojMTgxODE4O3N0cm9rZS13aWR0aDowLjU7c3Ryb2tlLWRhc2hhcnJheTo1LjAsNS4wOyIgeDE9IjQ2My41IiB4Mj0iNDYzLjUiIHkxPSI3OS45ODQ0IiB5Mj0iMTUwNS4wMzEzIi8+PC9nPjxnPjx0aXRsZT4mIzM2NzEyOyYjMzY5NDc7JiMzMTY0OTsmIzI5NzAyOyYjMjIxMjA7PC90aXRsZT48cmVjdCBmaWxsPSIjMDAwMDAwIiBmaWxsLW9wYWNpdHk9IjAuMDAwMDAiIGhlaWdodD0iMTQyNS4wNDY5IiB3aWR0aD0iOCIgeD0iNjA0IiB5PSI3OS45ODQ0Ii8+PGxpbmUgc3R5bGU9InN0cm9rZTojMTgxODE4O3N0cm9rZS13aWR0aDowLjU7c3Ryb2tlLWRhc2hhcnJheTo1LjAsNS4wOyIgeDE9IjYwOCIgeDI9IjYwOCIgeTE9Ijc5Ljk4NDQiIHkyPSIxNTA1LjAzMTMiLz48L2c+PGc+PHRpdGxlPiYjMzA4OTY7JiMyNTc1ODsmIzMxOTk1OyYjMzI0Nzk7PC90aXRsZT48cmVjdCBmaWxsPSIjMDAwMDAwIiBmaWxsLW9wYWNpdHk9IjAuMDAwMDAiIGhlaWdodD0iMTQyNS4wNDY5IiB3aWR0aD0iOCIgeD0iNjkxIiB5PSI3OS45ODQ0Ii8+PGxpbmUgc3R5bGU9InN0cm9rZTojMTgxODE4O3N0cm9rZS13aWR0aDowLjU7c3Ryb2tlLWRhc2hhcnJheTo1LjAsNS4wOyIgeDE9IjY5NSIgeDI9IjY5NSIgeTE9Ijc5Ljk4NDQiIHkyPSIxNTA1LjAzMTMiLz48L2c+PGc+PHRpdGxlPiYjMjU5Njg7JiMyNTQ1NDsmIzMxNjQ5OyYjMjk3MDI7JiMyMjEyMDs8L3RpdGxlPjxyZWN0IGZpbGw9IiMwMDAwMDAiIGZpbGwtb3BhY2l0eT0iMC4wMDAwMCIgaGVpZ2h0PSIxNDI1LjA0NjkiIHdpZHRoPSI4IiB4PSI4MzUuNSIgeT0iNzkuOTg0NCIvPjxsaW5lIHN0eWxlPSJzdHJva2U6IzE4MTgxODtzdHJva2Utd2lkdGg6MC41O3N0cm9rZS1kYXNoYXJyYXk6NS4wLDUuMDsiIHgxPSI4MzkuNSIgeDI9IjgzOS41IiB5MT0iNzkuOTg0NCIgeTI9IjE1MDUuMDMxMyIvPjwvZz48ZyBjbGFzcz0icGFydGljaXBhbnQgcGFydGljaXBhbnQtaGVhZCIgZGF0YS1wYXJ0aWNpcGFudD0iVXNlciI+PHRleHQgZmlsbD0iIzAwMDAwMCIgZm9udC1mYW1pbHk9InNhbnMtc2VyaWYiIGZvbnQtc2l6ZT0iMTQiIGxlbmd0aEFkanVzdD0ic3BhY2luZyIgdGV4dExlbmd0aD0iMjgiIHg9IjUiIHk9Ijc4LjIzNDQiPiYjMjk5OTI7JiMyNTE0Mzs8L3RleHQ+PGVsbGlwc2UgY3g9IjIyIiBjeT0iMTMuNSIgZmlsbD0iI0UyRTJGMCIgcng9IjgiIHJ5PSI4IiBzdHlsZT0ic3Ryb2tlOiMxODE4MTg7c3Ryb2tlLXdpZHRoOjAuNTsiLz48cGF0aCBkPSJNMjIsMjEuNSBMMjIsNDguNSBNOSwyOS41IEwzNSwyOS41IE0yMiw0OC41IEw5LDYzLjUgTTIyLDQ4LjUgTDM1LDYzLjUiIGZpbGw9Im5vbmUiIHN0eWxlPSJzdHJva2U6IzE4MTgxODtzdHJva2Utd2lkdGg6MC41OyIvPjwvZz48ZyBjbGFzcz0icGFydGljaXBhbnQgcGFydGljaXBhbnQtdGFpbCIgZGF0YS1wYXJ0aWNpcGFudD0iVXNlciI+PHRleHQgZmlsbD0iIzAwMDAwMCIgZm9udC1mYW1pbHk9InNhbnMtc2VyaWYiIGZvbnQtc2l6ZT0iMTQiIGxlbmd0aEFkanVzdD0ic3BhY2luZyIgdGV4dExlbmd0aD0iMjgiIHg9IjUiIHk9IjE1MTcuMjY1NiI+JiMyOTk5MjsmIzI1MTQzOzwvdGV4dD48ZWxsaXBzZSBjeD0iMjIiIGN5PSIxNTI3LjUxNTYiIGZpbGw9IiNFMkUyRjAiIHJ4PSI4IiByeT0iOCIgc3R5bGU9InN0cm9rZTojMTgxODE4O3N0cm9rZS13aWR0aDowLjU7Ii8+PHBhdGggZD0iTTIyLDE1MzUuNTE1NiBMMjIsMTU2Mi41MTU2IE05LDE1NDMuNTE1NiBMMzUsMTU0My41MTU2IE0yMiwxNTYyLjUxNTYgTDksMTU3Ny41MTU2IE0yMiwxNTYyLjUxNTYgTDM1LDE1NzcuNTE1NiIgZmlsbD0ibm9uZSIgc3R5bGU9InN0cm9rZTojMTgxODE4O3N0cm9rZS13aWR0aDowLjU7Ii8+PC9nPjxnIGNsYXNzPSJwYXJ0aWNpcGFudCBwYXJ0aWNpcGFudC1oZWFkIiBkYXRhLXBhcnRpY2lwYW50PSJVSSI+PHJlY3QgZmlsbD0iI0UyRTJGMCIgaGVpZ2h0PSIyOC45ODQ0IiByeD0iMi41IiByeT0iMi41IiBzdHlsZT0ic3Ryb2tlOiMxODE4MTg7c3Ryb2tlLXdpZHRoOjAuNTsiIHdpZHRoPSI1NiIgeD0iMTQwIiB5PSI1MCIvPjx0ZXh0IGZpbGw9IiMwMDAwMDAiIGZvbnQtZmFtaWx5PSJzYW5zLXNlcmlmIiBmb250LXNpemU9IjE0IiBsZW5ndGhBZGp1c3Q9InNwYWNpbmciIHRleHRMZW5ndGg9IjQyIiB4PSIxNDciIHk9IjcwLjIzNDQiPiYjMzAwMjg7JiMzODc1NDsmIzIzNjE4OzwvdGV4dD48L2c+PGcgY2xhc3M9InBhcnRpY2lwYW50IHBhcnRpY2lwYW50LXRhaWwiIGRhdGEtcGFydGljaXBhbnQ9IlVJIj48cmVjdCBmaWxsPSIjRTJFMkYwIiBoZWlnaHQ9IjI4Ljk4NDQiIHJ4PSIyLjUiIHJ5PSIyLjUiIHN0eWxlPSJzdHJva2U6IzE4MTgxODtzdHJva2Utd2lkdGg6MC41OyIgd2lkdGg9IjU2IiB4PSIxNDAiIHk9IjE1MDQuMDMxMyIvPjx0ZXh0IGZpbGw9IiMwMDAwMDAiIGZvbnQtZmFtaWx5PSJzYW5zLXNlcmlmIiBmb250LXNpemU9IjE0IiBsZW5ndGhBZGp1c3Q9InNwYWNpbmciIHRleHRMZW5ndGg9IjQyIiB4PSIxNDciIHk9IjE1MjQuMjY1NiI+JiMzMDAyODsmIzM4NzU0OyYjMjM2MTg7PC90ZXh0PjwvZz48ZyBjbGFzcz0icGFydGljaXBhbnQgcGFydGljaXBhbnQtaGVhZCIgZGF0YS1wYXJ0aWNpcGFudD0iR2FtZU1nciI+PHJlY3QgZmlsbD0iI0UyRTJGMCIgaGVpZ2h0PSIyOC45ODQ0IiByeD0iMi41IiByeT0iMi41IiBzdHlsZT0ic3Ryb2tlOiMxODE4MTg7c3Ryb2tlLXdpZHRoOjAuNTsiIHdpZHRoPSI4NCIgeD0iMjcwLjUiIHk9IjUwIi8+PHRleHQgZmlsbD0iIzAwMDAwMCIgZm9udC1mYW1pbHk9InNhbnMtc2VyaWYiIGZvbnQtc2l6ZT0iMTQiIGxlbmd0aEFkanVzdD0ic3BhY2luZyIgdGV4dExlbmd0aD0iNzAiIHg9IjI3Ny41IiB5PSI3MC4yMzQ0Ij4mIzI4MjE2OyYjMjUxMDM7JiMzMTY0OTsmIzI5NzAyOyYjMjIxMjA7PC90ZXh0PjwvZz48ZyBjbGFzcz0icGFydGljaXBhbnQgcGFydGljaXBhbnQtdGFpbCIgZGF0YS1wYXJ0aWNpcGFudD0iR2FtZU1nciI+PHJlY3QgZmlsbD0iI0UyRTJGMCIgaGVpZ2h0PSIyOC45ODQ0IiByeD0iMi41IiByeT0iMi41IiBzdHlsZT0ic3Ryb2tlOiMxODE4MTg7c3Ryb2tlLXdpZHRoOjAuNTsiIHdpZHRoPSI4NCIgeD0iMjcwLjUiIHk9IjE1MDQuMDMxMyIvPjx0ZXh0IGZpbGw9IiMwMDAwMDAiIGZvbnQtZmFtaWx5PSJzYW5zLXNlcmlmIiBmb250LXNpemU9IjE0IiBsZW5ndGhBZGp1c3Q9InNwYWNpbmciIHRleHRMZW5ndGg9IjcwIiB4PSIyNzcuNSIgeT0iMTUyNC4yNjU2Ij4mIzI4MjE2OyYjMjUxMDM7JiMzMTY0OTsmIzI5NzAyOyYjMjIxMjA7PC90ZXh0PjwvZz48ZyBjbGFzcz0icGFydGljaXBhbnQgcGFydGljaXBhbnQtaGVhZCIgZGF0YS1wYXJ0aWNpcGFudD0iQ2hhckN0cmwiPjxyZWN0IGZpbGw9IiNFMkUyRjAiIGhlaWdodD0iMjguOTg0NCIgcng9IjIuNSIgcnk9IjIuNSIgc3R5bGU9InN0cm9rZTojMTgxODE4O3N0cm9rZS13aWR0aDowLjU7IiB3aWR0aD0iODQiIHg9IjQyMS41IiB5PSI1MCIvPjx0ZXh0IGZpbGw9IiMwMDAwMDAiIGZvbnQtZmFtaWx5PSJzYW5zLXNlcmlmIiBmb250LXNpemU9IjE0IiBsZW5ndGhBZGp1c3Q9InNwYWNpbmciIHRleHRMZW5ndGg9IjcwIiB4PSI0MjguNSIgeT0iNzAuMjM0NCI+JiMzNTI4MjsmIzMzMzk0OyYjMjU1MTE7JiMyMTA0NjsmIzIyMTIwOzwvdGV4dD48L2c+PGcgY2xhc3M9InBhcnRpY2lwYW50IHBhcnRpY2lwYW50LXRhaWwiIGRhdGEtcGFydGljaXBhbnQ9IkNoYXJDdHJsIj48cmVjdCBmaWxsPSIjRTJFMkYwIiBoZWlnaHQ9IjI4Ljk4NDQiIHJ4PSIyLjUiIHJ5PSIyLjUiIHN0eWxlPSJzdHJva2U6IzE4MTgxODtzdHJva2Utd2lkdGg6MC41OyIgd2lkdGg9Ijg0IiB4PSI0MjEuNSIgeT0iMTUwNC4wMzEzIi8+PHRleHQgZmlsbD0iIzAwMDAwMCIgZm9udC1mYW1pbHk9InNhbnMtc2VyaWYiIGZvbnQtc2l6ZT0iMTQiIGxlbmd0aEFkanVzdD0ic3BhY2luZyIgdGV4dExlbmd0aD0iNzAiIHg9IjQyOC41IiB5PSIxNTI0LjI2NTYiPiYjMzUyODI7JiMzMzM5NDsmIzI1NTExOyYjMjEwNDY7JiMyMjEyMDs8L3RleHQ+PC9nPjxnIGNsYXNzPSJwYXJ0aWNpcGFudCBwYXJ0aWNpcGFudC1oZWFkIiBkYXRhLXBhcnRpY2lwYW50PSJUcmFja01nciI+PHJlY3QgZmlsbD0iI0UyRTJGMCIgaGVpZ2h0PSIyOC45ODQ0IiByeD0iMi41IiByeT0iMi41IiBzdHlsZT0ic3Ryb2tlOiMxODE4MTg7c3Ryb2tlLXdpZHRoOjAuNTsiIHdpZHRoPSI4NCIgeD0iNTY2IiB5PSI1MCIvPjx0ZXh0IGZpbGw9IiMwMDAwMDAiIGZvbnQtZmFtaWx5PSJzYW5zLXNlcmlmIiBmb250LXNpemU9IjE0IiBsZW5ndGhBZGp1c3Q9InNwYWNpbmciIHRleHRMZW5ndGg9IjcwIiB4PSI1NzMiIHk9IjcwLjIzNDQiPiYjMzY3MTI7JiMzNjk0NzsmIzMxNjQ5OyYjMjk3MDI7JiMyMjEyMDs8L3RleHQ+PC9nPjxnIGNsYXNzPSJwYXJ0aWNpcGFudCBwYXJ0aWNpcGFudC10YWlsIiBkYXRhLXBhcnRpY2lwYW50PSJUcmFja01nciI+PHJlY3QgZmlsbD0iI0UyRTJGMCIgaGVpZ2h0PSIyOC45ODQ0IiByeD0iMi41IiByeT0iMi41IiBzdHlsZT0ic3Ryb2tlOiMxODE4MTg7c3Ryb2tlLXdpZHRoOjAuNTsiIHdpZHRoPSI4NCIgeD0iNTY2IiB5PSIxNTA0LjAzMTMiLz48dGV4dCBmaWxsPSIjMDAwMDAwIiBmb250LWZhbWlseT0ic2Fucy1zZXJpZiIgZm9udC1zaXplPSIxNCIgbGVuZ3RoQWRqdXN0PSJzcGFjaW5nIiB0ZXh0TGVuZ3RoPSI3MCIgeD0iNTczIiB5PSIxNTI0LjI2NTYiPiYjMzY3MTI7JiMzNjk0NzsmIzMxNjQ5OyYjMjk3MDI7JiMyMjEyMDs8L3RleHQ+PC9nPjxnIGNsYXNzPSJwYXJ0aWNpcGFudCBwYXJ0aWNpcGFudC1oZWFkIiBkYXRhLXBhcnRpY2lwYW50PSJDb2xsaXNpb24iPjxyZWN0IGZpbGw9IiNFMkUyRjAiIGhlaWdodD0iMjguOTg0NCIgcng9IjIuNSIgcnk9IjIuNSIgc3R5bGU9InN0cm9rZTojMTgxODE4O3N0cm9rZS13aWR0aDowLjU7IiB3aWR0aD0iNzAiIHg9IjY2MCIgeT0iNTAiLz48dGV4dCBmaWxsPSIjMDAwMDAwIiBmb250LWZhbWlseT0ic2Fucy1zZXJpZiIgZm9udC1zaXplPSIxNCIgbGVuZ3RoQWRqdXN0PSJzcGFjaW5nIiB0ZXh0TGVuZ3RoPSI1NiIgeD0iNjY3IiB5PSI3MC4yMzQ0Ij4mIzMwODk2OyYjMjU3NTg7JiMzMTk5NTsmIzMyNDc5OzwvdGV4dD48L2c+PGcgY2xhc3M9InBhcnRpY2lwYW50IHBhcnRpY2lwYW50LXRhaWwiIGRhdGEtcGFydGljaXBhbnQ9IkNvbGxpc2lvbiI+PHJlY3QgZmlsbD0iI0UyRTJGMCIgaGVpZ2h0PSIyOC45ODQ0IiByeD0iMi41IiByeT0iMi41IiBzdHlsZT0ic3Ryb2tlOiMxODE4MTg7c3Ryb2tlLXdpZHRoOjAuNTsiIHdpZHRoPSI3MCIgeD0iNjYwIiB5PSIxNTA0LjAzMTMiLz48dGV4dCBmaWxsPSIjMDAwMDAwIiBmb250LWZhbWlseT0ic2Fucy1zZXJpZiIgZm9udC1zaXplPSIxNCIgbGVuZ3RoQWRqdXN0PSJzcGFjaW5nIiB0ZXh0TGVuZ3RoPSI1NiIgeD0iNjY3IiB5PSIxNTI0LjI2NTYiPiYjMzA4OTY7JiMyNTc1ODsmIzMxOTk1OyYjMzI0Nzk7PC90ZXh0PjwvZz48ZyBjbGFzcz0icGFydGljaXBhbnQgcGFydGljaXBhbnQtaGVhZCIgZGF0YS1wYXJ0aWNpcGFudD0iRGF0YU1nciI+PHJlY3QgZmlsbD0iI0UyRTJGMCIgaGVpZ2h0PSIyOC45ODQ0IiByeD0iMi41IiByeT0iMi41IiBzdHlsZT0ic3Ryb2tlOiMxODE4MTg7c3Ryb2tlLXdpZHRoOjAuNTsiIHdpZHRoPSI4NCIgeD0iNzk3LjUiIHk9IjUwIi8+PHRleHQgZmlsbD0iIzAwMDAwMCIgZm9udC1mYW1pbHk9InNhbnMtc2VyaWYiIGZvbnQtc2l6ZT0iMTQiIGxlbmd0aEFkanVzdD0ic3BhY2luZyIgdGV4dExlbmd0aD0iNzAiIHg9IjgwNC41IiB5PSI3MC4yMzQ0Ij4mIzI1OTY4OyYjMjU0NTQ7JiMzMTY0OTsmIzI5NzAyOyYjMjIxMjA7PC90ZXh0PjwvZz48ZyBjbGFzcz0icGFydGljaXBhbnQgcGFydGljaXBhbnQtdGFpbCIgZGF0YS1wYXJ0aWNpcGFudD0iRGF0YU1nciI+PHJlY3QgZmlsbD0iI0UyRTJGMCIgaGVpZ2h0PSIyOC45ODQ0IiByeD0iMi41IiByeT0iMi41IiBzdHlsZT0ic3Ryb2tlOiMxODE4MTg7c3Ryb2tlLXdpZHRoOjAuNTsiIHdpZHRoPSI4NCIgeD0iNzk3LjUiIHk9IjE1MDQuMDMxMyIvPjx0ZXh0IGZpbGw9IiMwMDAwMDAiIGZvbnQtZmFtaWx5PSJzYW5zLXNlcmlmIiBmb250LXNpemU9IjE0IiBsZW5ndGhBZGp1c3Q9InNwYWNpbmciIHRleHRMZW5ndGg9IjcwIiB4PSI4MDQuNSIgeT0iMTUyNC4yNjU2Ij4mIzI1OTY4OyYjMjU0NTQ7JiMzMTY0OTsmIzI5NzAyOyYjMjIxMjA7PC90ZXh0PjwvZz48Zz48dGl0bGU+JiMzMDAyODsmIzM4NzU0OyYjMjM2MTg7PC90aXRsZT48cmVjdCBmaWxsPSIjRkZGRkZGIiBoZWlnaHQ9IjE4MC40ODQ0IiBzdHlsZT0ic3Ryb2tlOiMxODE4MTg7c3Ryb2tlLXdpZHRoOjE7IiB3aWR0aD0iMTAiIHg9IjE2MyIgeT0iMTUxLjgxMjUiLz48L2c+PGc+PHRpdGxlPiYjMzAwMjg7JiMzODc1NDsmIzIzNjE4OzwvdGl0bGU+PHJlY3QgZmlsbD0iI0ZGRkZGRiIgaGVpZ2h0PSIyNTEuMjI2NiIgc3R5bGU9InN0cm9rZTojMTgxODE4O3N0cm9rZS13aWR0aDoxOyIgd2lkdGg9IjEwIiB4PSIxNjMiIHk9IjQwMi4xMjUiLz48L2c+PGc+PHRpdGxlPiYjMzAwMjg7JiMzODc1NDsmIzIzNjE4OzwvdGl0bGU+PHJlY3QgZmlsbD0iI0ZGRkZGRiIgaGVpZ2h0PSIzODguODgyOCIgc3R5bGU9InN0cm9rZTojMTgxODE4O3N0cm9rZS13aWR0aDoxOyIgd2lkdGg9IjEwIiB4PSIxNjMiIHk9IjcyMy4xNzk3Ii8+PC9nPjxnPjx0aXRsZT4mIzMwMDI4OyYjMzg3NTQ7JiMyMzYxODs8L3RpdGxlPjxyZWN0IGZpbGw9IiNGRkZGRkYiIGhlaWdodD0iMTY3LjQ4NDQiIHN0eWxlPSJzdHJva2U6IzE4MTgxODtzdHJva2Utd2lkdGg6MTsiIHdpZHRoPSIxMCIgeD0iMTYzIiB5PSIxMzE5LjU0NjkiLz48L2c+PGc+PHRpdGxlPiYjMjgyMTY7JiMyNTEwMzsmIzMxNjQ5OyYjMjk3MDI7JiMyMjEyMDs8L3RpdGxlPjxyZWN0IGZpbGw9IiNGRkZGRkYiIGhlaWdodD0iMTI0LjY1NjMiIHN0eWxlPSJzdHJva2U6IzE4MTgxODtzdHJva2Utd2lkdGg6MTsiIHdpZHRoPSIxMCIgeD0iMzA3LjUiIHk9IjE3OS43MjY2Ii8+PC9nPjxnPjx0aXRsZT4mIzI4MjE2OyYjMjUxMDM7JiMzMTY0OTsmIzI5NzAyOyYjMjIxMjA7PC90aXRsZT48cmVjdCBmaWxsPSIjRkZGRkZGIiBoZWlnaHQ9IjE5NS4zOTg0IiBzdHlsZT0ic3Ryb2tlOiMxODE4MTg7c3Ryb2tlLXdpZHRoOjE7IiB3aWR0aD0iMTAiIHg9IjMwNy41IiB5PSI0MzAuMDM5MSIvPjwvZz48Zz48dGl0bGU+JiMyODIxNjsmIzI1MTAzOyYjMzE2NDk7JiMyOTcwMjsmIzIyMTIwOzwvdGl0bGU+PHJlY3QgZmlsbD0iI0ZGRkZGRiIgaGVpZ2h0PSIxMzkuNTcwMyIgc3R5bGU9InN0cm9rZTojMTgxODE4O3N0cm9rZS13aWR0aDoxOyIgd2lkdGg9IjEwIiB4PSIzMDcuNSIgeT0iOTE2LjY2NDEiLz48L2c+PGc+PHRpdGxlPiYjMjgyMTY7JiMyNTEwMzsmIzMxNjQ5OyYjMjk3MDI7JiMyMjEyMDs8L3RpdGxlPjxyZWN0IGZpbGw9IiNGRkZGRkYiIGhlaWdodD0iMTU3LjU3MDMiIHN0eWxlPSJzdHJva2U6IzE4MTgxODtzdHJva2Utd2lkdGg6MTsiIHdpZHRoPSIxMCIgeD0iMzA3LjUiIHk9IjExODkuODkwNiIvPjwvZz48Zz48dGl0bGU+JiMyODIxNjsmIzI1MTAzOyYjMzE2NDk7JiMyOTcwMjsmIzIyMTIwOzwvdGl0bGU+PHJlY3QgZmlsbD0iI0ZGRkZGRiIgaGVpZ2h0PSIyNy45MTQxIiBzdHlsZT0ic3Ryb2tlOiMxODE4MTg7c3Ryb2tlLXdpZHRoOjE7IiB3aWR0aD0iMTAiIHg9IjMwNy41IiB5PSIxNDMxLjIwMzEiLz48L2c+PGc+PHRpdGxlPiYjMzUyODI7JiMzMzM5NDsmIzI1NTExOyYjMjEwNDY7JiMyMjEyMDs8L3RpdGxlPjxyZWN0IGZpbGw9IiNGRkZGRkYiIGhlaWdodD0iMjcuOTE0MSIgc3R5bGU9InN0cm9rZTojMTgxODE4O3N0cm9rZS13aWR0aDoxOyIgd2lkdGg9IjEwIiB4PSI0NTguNSIgeT0iNTEzLjc4MTMiLz48L2c+PGc+PHRpdGxlPiYjMzUyODI7JiMzMzM5NDsmIzI1NTExOyYjMjEwNDY7JiMyMjEyMDs8L3RpdGxlPjxyZWN0IGZpbGw9IiNGRkZGRkYiIGhlaWdodD0iMzMzLjA1NDciIHN0eWxlPSJzdHJva2U6IzE4MTgxODtzdHJva2Utd2lkdGg6MTsiIHdpZHRoPSIxMCIgeD0iNDU4LjUiIHk9Ijc1MS4wOTM4Ii8+PC9nPjxnPjx0aXRsZT4mIzM2NzEyOyYjMzY5NDc7JiMzMTY0OTsmIzI5NzAyOyYjMjIxMjA7PC90aXRsZT48cmVjdCBmaWxsPSIjRkZGRkZGIiBoZWlnaHQ9IjI3LjkxNDEiIHN0eWxlPSJzdHJva2U6IzE4MTgxODtzdHJva2Utd2lkdGg6MTsiIHdpZHRoPSIxMCIgeD0iNjAzIiB5PSI1NjkuNjA5NCIvPjwvZz48Zz48dGl0bGU+JiMzNjcxMjsmIzM2OTQ3OyYjMzE2NDk7JiMyOTcwMjsmIzIyMTIwOzwvdGl0bGU+PHJlY3QgZmlsbD0iI0ZGRkZGRiIgaGVpZ2h0PSIyNy45MTQxIiBzdHlsZT0ic3Ryb2tlOiMxODE4MTg7c3Ryb2tlLXdpZHRoOjE7IiB3aWR0aD0iMTAiIHg9IjYwMyIgeT0iOTQ0LjU3ODEiLz48L2c+PGc+PHRpdGxlPiYjMzA4OTY7JiMyNTc1ODsmIzMxOTk1OyYjMzI0Nzk7PC90aXRsZT48cmVjdCBmaWxsPSIjRkZGRkZGIiBoZWlnaHQ9IjY4LjgyODEiIHN0eWxlPSJzdHJva2U6IzE4MTgxODtzdHJva2Utd2lkdGg6MTsiIHdpZHRoPSIxMCIgeD0iNjkwIiB5PSI4MTkuOTIxOSIvPjwvZz48Zz48dGl0bGU+JiMyNTk2ODsmIzI1NDU0OyYjMzE2NDk7JiMyOTcwMjsmIzIyMTIwOzwvdGl0bGU+PHJlY3QgZmlsbD0iI0ZGRkZGRiIgaGVpZ2h0PSI2OC44MjgxIiBzdHlsZT0ic3Ryb2tlOiMxODE4MTg7c3Ryb2tlLXdpZHRoOjE7IiB3aWR0aD0iMTAiIHg9IjgzNC41IiB5PSIyMDcuNjQwNiIvPjwvZz48Zz48dGl0bGU+JiMyNTk2ODsmIzI1NDU0OyYjMzE2NDk7JiMyOTcwMjsmIzIyMTIwOzwvdGl0bGU+PHJlY3QgZmlsbD0iI0ZGRkZGRiIgaGVpZ2h0PSIyNy45MTQxIiBzdHlsZT0ic3Ryb2tlOiMxODE4MTg7c3Ryb2tlLXdpZHRoOjE7IiB3aWR0aD0iMTAiIHg9IjgzNC41IiB5PSI0NTcuOTUzMSIvPjwvZz48Zz48dGl0bGU+JiMyNTk2ODsmIzI1NDU0OyYjMzE2NDk7JiMyOTcwMjsmIzIyMTIwOzwvdGl0bGU+PHJlY3QgZmlsbD0iI0ZGRkZGRiIgaGVpZ2h0PSIyNy45MTQxIiBzdHlsZT0ic3Ryb2tlOiMxODE4MTg7c3Ryb2tlLXdpZHRoOjE7IiB3aWR0aD0iMTAiIHg9IjgzNC41IiB5PSIxMDAwLjQwNjMiLz48L2c+PGc+PHRpdGxlPiYjMjU5Njg7JiMyNTQ1NDsmIzMxNjQ5OyYjMjk3MDI7JiMyMjEyMDs8L3RpdGxlPjxyZWN0IGZpbGw9IiNGRkZGRkYiIGhlaWdodD0iNjguODI4MSIgc3R5bGU9InN0cm9rZTojMTgxODE4O3N0cm9rZS13aWR0aDoxOyIgd2lkdGg9IjEwIiB4PSI4MzQuNSIgeT0iMTIyMi44MDQ3Ii8+PC9nPjxyZWN0IGZpbGw9IiNFRUVFRUUiIGhlaWdodD0iMyIgcng9IjIuNSIgcnk9IjIuNSIgc3R5bGU9InN0cm9rZTojRUVFRUVFO3N0cm9rZS13aWR0aDoxOyIgd2lkdGg9Ijk5NyIgeD0iMCIgeT0iMTA5Ljk0MTQiLz48bGluZSBzdHlsZT0ic3Ryb2tlOiMwMDAwMDA7c3Ryb2tlLXdpZHRoOjE7IiB4MT0iMCIgeDI9Ijk5NyIgeTE9IjEwOS45NDE0IiB5Mj0iMTA5Ljk0MTQiLz48bGluZSBzdHlsZT0ic3Ryb2tlOiMwMDAwMDA7c3Ryb2tlLXdpZHRoOjE7IiB4MT0iMCIgeDI9Ijk5NyIgeTE9IjExMi45NDE0IiB5Mj0iMTEyLjk0MTQiLz48cmVjdCBmaWxsPSIjRUVFRUVFIiBoZWlnaHQ9IjIxLjkxNDEiIHJ4PSIyLjUiIHJ5PSIyLjUiIHN0eWxlPSJzdHJva2U6IzAwMDAwMDtzdHJva2Utd2lkdGg6MjsiIHdpZHRoPSI5OC41IiB4PSI0NDkuMjUiIHk9Ijk5Ljk4NDQiLz48dGV4dCBmaWxsPSIjMDAwMDAwIiBmb250LWZhbWlseT0ic2Fucy1zZXJpZiIgZm9udC1zaXplPSIxMyIgZm9udC13ZWlnaHQ9ImJvbGQiIGxlbmd0aEFkanVzdD0ic3BhY2luZyIgdGV4dExlbmd0aD0iNzgiIHg9IjQ1NS4yNSIgeT0iMTE2LjI3MzQiPiYjMzYxMzQ7JiMyNTE0MzsmIzM5NTY0OyYjMzU3Nzc7JiMzODQ1NDsmIzI3NTczOzwvdGV4dD48ZyBjbGFzcz0ibWVzc2FnZSIgZGF0YS1wYXJ0aWNpcGFudC0xPSJVc2VyIiBkYXRhLXBhcnRpY2lwYW50LTI9IlVJIj48cG9seWdvbiBmaWxsPSIjMTgxODE4IiBwb2ludHM9IjE1MSwxNDcuODEyNSwxNjEsMTUxLjgxMjUsMTUxLDE1NS44MTI1LDE1NSwxNTEuODEyNSIgc3R5bGU9InN0cm9rZTojMTgxODE4O3N0cm9rZS13aWR0aDoxOyIvPjxsaW5lIHN0eWxlPSJzdHJva2U6IzE4MTgxODtzdHJva2Utd2lkdGg6MjsiIHgxPSIyMiIgeDI9IjE1NyIgeTE9IjE1MS44MTI1IiB5Mj0iMTUxLjgxMjUiLz48dGV4dCBmaWxsPSIjMDAwMDAwIiBmb250LWZhbWlseT0ic2Fucy1zZXJpZiIgZm9udC1zaXplPSIxMyIgbGVuZ3RoQWRqdXN0PSJzcGFjaW5nIiB0ZXh0TGVuZ3RoPSI4NC41IiB4PSIyOSIgeT0iMTQ4LjE4NzUiPjEuMTogJiMzMDMzMTsmIzI0NDA1OyYjMzU4MzE7JiMyNzcxNDs8L3RleHQ+PC9nPjxnIGNsYXNzPSJtZXNzYWdlIiBkYXRhLXBhcnRpY2lwYW50LTE9IlVJIiBkYXRhLXBhcnRpY2lwYW50LTI9IkdhbWVNZ3IiPjxwb2x5Z29uIGZpbGw9IiMxODE4MTgiIHBvaW50cz0iMjk1LjUsMTc1LjcyNjYsMzA1LjUsMTc5LjcyNjYsMjk1LjUsMTgzLjcyNjYsMjk5LjUsMTc5LjcyNjYiIHN0eWxlPSJzdHJva2U6IzE4MTgxODtzdHJva2Utd2lkdGg6MTsiLz48bGluZSBzdHlsZT0ic3Ryb2tlOiMxODE4MTg7c3Ryb2tlLXdpZHRoOjI7IiB4MT0iMTczIiB4Mj0iMzAxLjUiIHkxPSIxNzkuNzI2NiIgeTI9IjE3OS43MjY2Ii8+PHRleHQgZmlsbD0iIzAwMDAwMCIgZm9udC1mYW1pbHk9InNhbnMtc2VyaWYiIGZvbnQtc2l6ZT0iMTMiIGxlbmd0aEFkanVzdD0ic3BhY2luZyIgdGV4dExlbmd0aD0iMTEwLjUiIHg9IjE4MCIgeT0iMTc2LjEwMTYiPjEuMjogJiMyMTQ1NzsmIzM2ODY1OyYjMzk1NjQ7JiMzNTc3NzsmIzM1ODMxOyYjMjc3MTQ7PC90ZXh0PjwvZz48ZyBjbGFzcz0ibWVzc2FnZSIgZGF0YS1wYXJ0aWNpcGFudC0xPSJHYW1lTWdyIiBkYXRhLXBhcnRpY2lwYW50LTI9IkRhdGFNZ3IiPjxwb2x5Z29uIGZpbGw9IiMxODE4MTgiIHBvaW50cz0iODIyLjUsMjAzLjY0MDYsODMyLjUsMjA3LjY0MDYsODIyLjUsMjExLjY0MDYsODI2LjUsMjA3LjY0MDYiIHN0eWxlPSJzdHJva2U6IzE4MTgxODtzdHJva2Utd2lkdGg6MTsiLz48bGluZSBzdHlsZT0ic3Ryb2tlOiMxODE4MTg7c3Ryb2tlLXdpZHRoOjI7IiB4MT0iMzE3LjUiIHgyPSI4MjguNSIgeTE9IjIwNy42NDA2IiB5Mj0iMjA3LjY0MDYiLz48dGV4dCBmaWxsPSIjMDAwMDAwIiBmb250LWZhbWlseT0ic2Fucy1zZXJpZiIgZm9udC1zaXplPSIxMyIgbGVuZ3RoQWRqdXN0PSJzcGFjaW5nIiB0ZXh0TGVuZ3RoPSIxMTAuNSIgeD0iMzI0LjUiIHk9IjIwNC4wMTU2Ij4xLjM6ICYjMjY1OTc7JiMzNTgxMDsmIzI5OTkyOyYjMjUxNDM7JiMyNTk2ODsmIzI1NDU0OzwvdGV4dD48L2c+PGcgY2xhc3M9Im1lc3NhZ2UiIGRhdGEtcGFydGljaXBhbnQtMT0iRGF0YU1nciIgZGF0YS1wYXJ0aWNpcGFudC0yPSJEYXRhTWdyIj48bGluZSBzdHlsZT0ic3Ryb2tlOiMxODE4MTg7c3Ryb2tlLXdpZHRoOjI7IiB4MT0iODQ0LjUiIHgyPSI4ODYuNSIgeTE9IjIzNS41NTQ3IiB5Mj0iMjM1LjU1NDciLz48bGluZSBzdHlsZT0ic3Ryb2tlOiMxODE4MTg7c3Ryb2tlLXdpZHRoOjI7IiB4MT0iODg2LjUiIHgyPSI4ODYuNSIgeTE9IjIzNS41NTQ3IiB5Mj0iMjQ4LjU1NDciLz48bGluZSBzdHlsZT0ic3Ryb2tlOiMxODE4MTg7c3Ryb2tlLXdpZHRoOjI7IiB4MT0iODQ1LjUiIHgyPSI4ODYuNSIgeTE9IjI0OC41NTQ3IiB5Mj0iMjQ4LjU1NDciLz48cG9seWdvbiBmaWxsPSIjMTgxODE4IiBwb2ludHM9Ijg1NS41LDI0NC41NTQ3LDg0NS41LDI0OC41NTQ3LDg1NS41LDI1Mi41NTQ3LDg1MS41LDI0OC41NTQ3IiBzdHlsZT0ic3Ryb2tlOiMxODE4MTg7c3Ryb2tlLXdpZHRoOjE7Ii8+PHRleHQgZmlsbD0iIzAwMDAwMCIgZm9udC1mYW1pbHk9InNhbnMtc2VyaWYiIGZvbnQtc2l6ZT0iMTMiIGxlbmd0aEFkanVzdD0ic3BhY2luZyIgdGV4dExlbmd0aD0iODQuNSIgeD0iODUxLjUiIHk9IjIzMS45Mjk3Ij4xLjQ6ICYjMjUxOTE7JiMzNDg5MjsmIzM5NTY0OyYjMzU3Nzc7PC90ZXh0PjwvZz48ZyBjbGFzcz0ibWVzc2FnZSIgZGF0YS1wYXJ0aWNpcGFudC0xPSJEYXRhTWdyIiBkYXRhLXBhcnRpY2lwYW50LTI9IkdhbWVNZ3IiPjxwb2x5Z29uIGZpbGw9IiMxODE4MTgiIHBvaW50cz0iMzI4LjUsMjcyLjQ2ODgsMzE4LjUsMjc2LjQ2ODgsMzI4LjUsMjgwLjQ2ODgsMzI0LjUsMjc2LjQ2ODgiIHN0eWxlPSJzdHJva2U6IzE4MTgxODtzdHJva2Utd2lkdGg6MTsiLz48bGluZSBzdHlsZT0ic3Ryb2tlOiMxODE4MTg7c3Ryb2tlLXdpZHRoOjI7c3Ryb2tlLWRhc2hhcnJheToyLjAsMi4wOyIgeDE9IjMyMi41IiB4Mj0iODM4LjUiIHkxPSIyNzYuNDY4OCIgeTI9IjI3Ni40Njg4Ii8+PHRleHQgZmlsbD0iIzAwMDAwMCIgZm9udC1mYW1pbHk9InNhbnMtc2VyaWYiIGZvbnQtc2l6ZT0iMTMiIGxlbmd0aEFkanVzdD0ic3BhY2luZyIgdGV4dExlbmd0aD0iMTEwLjUiIHg9IjMzNC41IiB5PSIyNzIuODQzOCI+MS41OiAmIzM2ODIwOyYjMjIyMzg7JiMzOTU2NDsmIzM1Nzc3OyYjMzI0Njc7JiMyNjUyNDs8L3RleHQ+PC9nPjxnIGNsYXNzPSJtZXNzYWdlIiBkYXRhLXBhcnRpY2lwYW50LTE9IkdhbWVNZ3IiIGRhdGEtcGFydGljaXBhbnQtMj0iVUkiPjxwb2x5Z29uIGZpbGw9IiMxODE4MTgiIHBvaW50cz0iMTg0LDMwMC4zODI4LDE3NCwzMDQuMzgyOCwxODQsMzA4LjM4MjgsMTgwLDMwNC4zODI4IiBzdHlsZT0ic3Ryb2tlOiMxODE4MTg7c3Ryb2tlLXdpZHRoOjE7Ii8+PGxpbmUgc3R5bGU9InN0cm9rZTojMTgxODE4O3N0cm9rZS13aWR0aDoyO3N0cm9rZS1kYXNoYXJyYXk6Mi4wLDIuMDsiIHgxPSIxNzgiIHgyPSIzMTEuNSIgeTE9IjMwNC4zODI4IiB5Mj0iMzA0LjM4MjgiLz48dGV4dCBmaWxsPSIjMDAwMDAwIiBmb250LWZhbWlseT0ic2Fucy1zZXJpZiIgZm9udC1zaXplPSIxMyIgbGVuZ3RoQWRqdXN0PSJzcGFjaW5nIiB0ZXh0TGVuZ3RoPSIxMTAuNSIgeD0iMTkwIiB5PSIzMDAuNzU3OCI+MS42OiAmIzM2ODIwOyYjMjIyMzg7JiMzOTU2NDsmIzM1Nzc3OyYjMjkzNjY7JiMyNDU3Nzs8L3RleHQ+PC9nPjxnIGNsYXNzPSJtZXNzYWdlIiBkYXRhLXBhcnRpY2lwYW50LTE9IlVJIiBkYXRhLXBhcnRpY2lwYW50LTI9IlVzZXIiPjxwb2x5Z29uIGZpbGw9IiMxODE4MTgiIHBvaW50cz0iMzMsMzI4LjI5NjksMjMsMzMyLjI5NjksMzMsMzM2LjI5NjksMjksMzMyLjI5NjkiIHN0eWxlPSJzdHJva2U6IzE4MTgxODtzdHJva2Utd2lkdGg6MTsiLz48bGluZSBzdHlsZT0ic3Ryb2tlOiMxODE4MTg7c3Ryb2tlLXdpZHRoOjI7c3Ryb2tlLWRhc2hhcnJheToyLjAsMi4wOyIgeDE9IjI3IiB4Mj0iMTY3IiB5MT0iMzMyLjI5NjkiIHkyPSIzMzIuMjk2OSIvPjx0ZXh0IGZpbGw9IiMwMDAwMDAiIGZvbnQtZmFtaWx5PSJzYW5zLXNlcmlmIiBmb250LXNpemU9IjEzIiBsZW5ndGhBZGp1c3Q9InNwYWNpbmciIHRleHRMZW5ndGg9Ijk3LjUiIHg9IjM5IiB5PSIzMjguNjcxOSI+MS43OiAmIzI2MTc0OyYjMzEwMzQ7JiMyMDAyNzsmIzMwMDI4OyYjMzg3NTQ7PC90ZXh0PjwvZz48cmVjdCBmaWxsPSIjRUVFRUVFIiBoZWlnaHQ9IjMiIHJ4PSIyLjUiIHJ5PSIyLjUiIHN0eWxlPSJzdHJva2U6I0VFRUVFRTtzdHJva2Utd2lkdGg6MTsiIHdpZHRoPSI5OTciIHg9IjAiIHk9IjM2MC4yNTM5Ii8+PGxpbmUgc3R5bGU9InN0cm9rZTojMDAwMDAwO3N0cm9rZS13aWR0aDoxOyIgeDE9IjAiIHgyPSI5OTciIHkxPSIzNjAuMjUzOSIgeTI9IjM2MC4yNTM5Ii8+PGxpbmUgc3R5bGU9InN0cm9rZTojMDAwMDAwO3N0cm9rZS13aWR0aDoxOyIgeDE9IjAiIHgyPSI5OTciIHkxPSIzNjMuMjUzOSIgeTI9IjM2My4yNTM5Ii8+PHJlY3QgZmlsbD0iI0VFRUVFRSIgaGVpZ2h0PSIyMS45MTQxIiByeD0iMi41IiByeT0iMi41IiBzdHlsZT0ic3Ryb2tlOiMwMDAwMDA7c3Ryb2tlLXdpZHRoOjI7IiB3aWR0aD0iOTguNSIgeD0iNDQ5LjI1IiB5PSIzNTAuMjk2OSIvPjx0ZXh0IGZpbGw9IiMwMDAwMDAiIGZvbnQtZmFtaWx5PSJzYW5zLXNlcmlmIiBmb250LXNpemU9IjEzIiBmb250LXdlaWdodD0iYm9sZCIgbGVuZ3RoQWRqdXN0PSJzcGFjaW5nIiB0ZXh0TGVuZ3RoPSI3OCIgeD0iNDU1LjI1IiB5PSIzNjYuNTg1OSI+JiMyODIxNjsmIzI1MTAzOyYjMjA5MzQ7JiMyMjc5MTsmIzM4NDU0OyYjMjc1NzM7PC90ZXh0PjxnIGNsYXNzPSJtZXNzYWdlIiBkYXRhLXBhcnRpY2lwYW50LTE9IlVzZXIiIGRhdGEtcGFydGljaXBhbnQtMj0iVUkiPjxwb2x5Z29uIGZpbGw9IiMxODE4MTgiIHBvaW50cz0iMTUxLDM5OC4xMjUsMTYxLDQwMi4xMjUsMTUxLDQwNi4xMjUsMTU1LDQwMi4xMjUiIHN0eWxlPSJzdHJva2U6IzE4MTgxODtzdHJva2Utd2lkdGg6MTsiLz48bGluZSBzdHlsZT0ic3Ryb2tlOiMxODE4MTg7c3Ryb2tlLXdpZHRoOjI7IiB4MT0iMjIiIHgyPSIxNTciIHkxPSI0MDIuMTI1IiB5Mj0iNDAyLjEyNSIvPjx0ZXh0IGZpbGw9IiMwMDAwMDAiIGZvbnQtZmFtaWx5PSJzYW5zLXNlcmlmIiBmb250LXNpemU9IjEzIiBsZW5ndGhBZGp1c3Q9InNwYWNpbmciIHRleHRMZW5ndGg9IjExMC41IiB4PSIyOSIgeT0iMzk4LjUiPjIuMTogJiMzNjg3MzsmIzI1MzIxOyYjMjgyMTY7JiMyNTEwMzsmIzM1Nzc0OyYjMzI2MjI7PC90ZXh0PjwvZz48ZyBjbGFzcz0ibWVzc2FnZSIgZGF0YS1wYXJ0aWNpcGFudC0xPSJVSSIgZGF0YS1wYXJ0aWNpcGFudC0yPSJHYW1lTWdyIj48cG9seWdvbiBmaWxsPSIjMTgxODE4IiBwb2ludHM9IjI5NS41LDQyNi4wMzkxLDMwNS41LDQzMC4wMzkxLDI5NS41LDQzNC4wMzkxLDI5OS41LDQzMC4wMzkxIiBzdHlsZT0ic3Ryb2tlOiMxODE4MTg7c3Ryb2tlLXdpZHRoOjE7Ii8+PGxpbmUgc3R5bGU9InN0cm9rZTojMTgxODE4O3N0cm9rZS13aWR0aDoyOyIgeDE9IjE3MyIgeDI9IjMwMS41IiB5MT0iNDMwLjAzOTEiIHkyPSI0MzAuMDM5MSIvPjx0ZXh0IGZpbGw9IiMwMDAwMDAiIGZvbnQtZmFtaWx5PSJzYW5zLXNlcmlmIiBmb250LXNpemU9IjEzIiBsZW5ndGhBZGp1c3Q9InNwYWNpbmciIHRleHRMZW5ndGg9IjExMC41IiB4PSIxODAiIHk9IjQyNi40MTQxIj4yLjI6ICYjMjU1NTI7JiMyMDEzMjsmIzI4MjE2OyYjMjUxMDM7JiMzNTc3NDsmIzMyNjIyOzwvdGV4dD48L2c+PGcgY2xhc3M9Im1lc3NhZ2UiIGRhdGEtcGFydGljaXBhbnQtMT0iR2FtZU1nciIgZGF0YS1wYXJ0aWNpcGFudC0yPSJEYXRhTWdyIj48cG9seWdvbiBmaWxsPSIjMTgxODE4IiBwb2ludHM9IjgyMi41LDQ1My45NTMxLDgzMi41LDQ1Ny45NTMxLDgyMi41LDQ2MS45NTMxLDgyNi41LDQ1Ny45NTMxIiBzdHlsZT0ic3Ryb2tlOiMxODE4MTg7c3Ryb2tlLXdpZHRoOjE7Ii8+PGxpbmUgc3R5bGU9InN0cm9rZTojMTgxODE4O3N0cm9rZS13aWR0aDoyOyIgeDE9IjMxNy41IiB4Mj0iODI4LjUiIHkxPSI0NTcuOTUzMSIgeTI9IjQ1Ny45NTMxIi8+PHRleHQgZmlsbD0iIzAwMDAwMCIgZm9udC1mYW1pbHk9InNhbnMtc2VyaWYiIGZvbnQtc2l6ZT0iMTMiIGxlbmd0aEFkanVzdD0ic3BhY2luZyIgdGV4dExlbmd0aD0iMTEwLjUiIHg9IjMyNC41IiB5PSI0NTQuMzI4MSI+Mi4zOiAmIzIxMTUyOyYjMzY3MzM7JiMyODIxNjsmIzI1MTAzOyYjMzYxNjQ7JiMyODMwNDs8L3RleHQ+PC9nPjxnIGNsYXNzPSJtZXNzYWdlIiBkYXRhLXBhcnRpY2lwYW50LTE9IkRhdGFNZ3IiIGRhdGEtcGFydGljaXBhbnQtMj0iR2FtZU1nciI+PHBvbHlnb24gZmlsbD0iIzE4MTgxOCIgcG9pbnRzPSIzMjguNSw0ODEuODY3MiwzMTguNSw0ODUuODY3MiwzMjguNSw0ODkuODY3MiwzMjQuNSw0ODUuODY3MiIgc3R5bGU9InN0cm9rZTojMTgxODE4O3N0cm9rZS13aWR0aDoxOyIvPjxsaW5lIHN0eWxlPSJzdHJva2U6IzE4MTgxODtzdHJva2Utd2lkdGg6MjtzdHJva2UtZGFzaGFycmF5OjIuMCwyLjA7IiB4MT0iMzIyLjUiIHgyPSI4MzguNSIgeTE9IjQ4NS44NjcyIiB5Mj0iNDg1Ljg2NzIiLz48dGV4dCBmaWxsPSIjMDAwMDAwIiBmb250LWZhbWlseT0ic2Fucy1zZXJpZiIgZm9udC1zaXplPSIxMyIgbGVuZ3RoQWRqdXN0PSJzcGFjaW5nIiB0ZXh0TGVuZ3RoPSIxMTAuNSIgeD0iMzM0LjUiIHk9IjQ4Mi4yNDIyIj4yLjQ6ICYjMzY4MjA7JiMyMjIzODsmIzM2MTY0OyYjMjgzMDQ7JiMyNTk2ODsmIzI1NDU0OzwvdGV4dD48L2c+PGcgY2xhc3M9Im1lc3NhZ2UiIGRhdGEtcGFydGljaXBhbnQtMT0iR2FtZU1nciIgZGF0YS1wYXJ0aWNpcGFudC0yPSJDaGFyQ3RybCI+PHBvbHlnb24gZmlsbD0iIzE4MTgxOCIgcG9pbnRzPSI0NDYuNSw1MDkuNzgxMyw0NTYuNSw1MTMuNzgxMyw0NDYuNSw1MTcuNzgxMyw0NTAuNSw1MTMuNzgxMyIgc3R5bGU9InN0cm9rZTojMTgxODE4O3N0cm9rZS13aWR0aDoxOyIvPjxsaW5lIHN0eWxlPSJzdHJva2U6IzE4MTgxODtzdHJva2Utd2lkdGg6MjsiIHgxPSIzMTcuNSIgeDI9IjQ1Mi41IiB5MT0iNTEzLjc4MTMiIHkyPSI1MTMuNzgxMyIvPjx0ZXh0IGZpbGw9IiMwMDAwMDAiIGZvbnQtZmFtaWx5PSJzYW5zLXNlcmlmIiBmb250LXNpemU9IjEzIiBsZW5ndGhBZGp1c3Q9InNwYWNpbmciIHRleHRMZW5ndGg9Ijk3LjUiIHg9IjMyNC41IiB5PSI1MTAuMTU2MyI+Mi41OiAmIzIxMDIxOyYjMjI5ODc7JiMyMTI3MDsmIzM1MjgyOyYjMzMzOTQ7PC90ZXh0PjwvZz48ZyBjbGFzcz0ibWVzc2FnZSIgZGF0YS1wYXJ0aWNpcGFudC0xPSJDaGFyQ3RybCIgZGF0YS1wYXJ0aWNpcGFudC0yPSJHYW1lTWdyIj48cG9seWdvbiBmaWxsPSIjMTgxODE4IiBwb2ludHM9IjMyOC41LDUzNy42OTUzLDMxOC41LDU0MS42OTUzLDMyOC41LDU0NS42OTUzLDMyNC41LDU0MS42OTUzIiBzdHlsZT0ic3Ryb2tlOiMxODE4MTg7c3Ryb2tlLXdpZHRoOjE7Ii8+PGxpbmUgc3R5bGU9InN0cm9rZTojMTgxODE4O3N0cm9rZS13aWR0aDoyO3N0cm9rZS1kYXNoYXJyYXk6Mi4wLDIuMDsiIHgxPSIzMjIuNSIgeDI9IjQ2Mi41IiB5MT0iNTQxLjY5NTMiIHkyPSI1NDEuNjk1MyIvPjx0ZXh0IGZpbGw9IiMwMDAwMDAiIGZvbnQtZmFtaWx5PSJzYW5zLXNlcmlmIiBmb250LXNpemU9IjEzIiBsZW5ndGhBZGp1c3Q9InNwYWNpbmciIHRleHRMZW5ndGg9IjExMC41IiB4PSIzMzQuNSIgeT0iNTM4LjA3MDMiPjIuNjogJiMzNTI4MjsmIzMzMzk0OyYjMjA5MzQ7JiMyMjc5MTsmIzIzNDM2OyYjMjUxMDQ7PC90ZXh0PjwvZz48ZyBjbGFzcz0ibWVzc2FnZSIgZGF0YS1wYXJ0aWNpcGFudC0xPSJHYW1lTWdyIiBkYXRhLXBhcnRpY2lwYW50LTI9IlRyYWNrTWdyIj48cG9seWdvbiBmaWxsPSIjMTgxODE4IiBwb2ludHM9IjU5MSw1NjUuNjA5NCw2MDEsNTY5LjYwOTQsNTkxLDU3My42MDk0LDU5NSw1NjkuNjA5NCIgc3R5bGU9InN0cm9rZTojMTgxODE4O3N0cm9rZS13aWR0aDoxOyIvPjxsaW5lIHN0eWxlPSJzdHJva2U6IzE4MTgxODtzdHJva2Utd2lkdGg6MjsiIHgxPSIzMTcuNSIgeDI9IjU5NyIgeTE9IjU2OS42MDk0IiB5Mj0iNTY5LjYwOTQiLz48dGV4dCBmaWxsPSIjMDAwMDAwIiBmb250LWZhbWlseT0ic2Fucy1zZXJpZiIgZm9udC1zaXplPSIxMyIgbGVuZ3RoQWRqdXN0PSJzcGFjaW5nIiB0ZXh0TGVuZ3RoPSIxMjMuNSIgeD0iMzI0LjUiIHk9IjU2NS45ODQ0Ij4yLjc6ICYjMjEwMjE7JiMyMjk4NzsmIzIxMjcwOyYjMzY3MTI7JiMzNjk0NzsmIzI5NjE1OyYjMjI2NTk7PC90ZXh0PjwvZz48ZyBjbGFzcz0ibWVzc2FnZSIgZGF0YS1wYXJ0aWNpcGFudC0xPSJUcmFja01nciIgZGF0YS1wYXJ0aWNpcGFudC0yPSJHYW1lTWdyIj48cG9seWdvbiBmaWxsPSIjMTgxODE4IiBwb2ludHM9IjMyOC41LDU5My41MjM0LDMxOC41LDU5Ny41MjM0LDMyOC41LDYwMS41MjM0LDMyNC41LDU5Ny41MjM0IiBzdHlsZT0ic3Ryb2tlOiMxODE4MTg7c3Ryb2tlLXdpZHRoOjE7Ii8+PGxpbmUgc3R5bGU9InN0cm9rZTojMTgxODE4O3N0cm9rZS13aWR0aDoyO3N0cm9rZS1kYXNoYXJyYXk6Mi4wLDIuMDsiIHgxPSIzMjIuNSIgeDI9IjYwNyIgeTE9IjU5Ny41MjM0IiB5Mj0iNTk3LjUyMzQiLz48dGV4dCBmaWxsPSIjMDAwMDAwIiBmb250LWZhbWlseT0ic2Fucy1zZXJpZiIgZm9udC1zaXplPSIxMyIgbGVuZ3RoQWRqdXN0PSJzcGFjaW5nIiB0ZXh0TGVuZ3RoPSIxMTAuNSIgeD0iMzM0LjUiIHk9IjU5My44OTg0Ij4yLjg6ICYjMjk2MTU7JiMyMjY1OTsmIzIwOTM0OyYjMjI3OTE7JiMyMzQzNjsmIzI1MTA0OzwvdGV4dD48L2c+PGcgY2xhc3M9Im1lc3NhZ2UiIGRhdGEtcGFydGljaXBhbnQtMT0iR2FtZU1nciIgZGF0YS1wYXJ0aWNpcGFudC0yPSJVSSI+PHBvbHlnb24gZmlsbD0iIzE4MTgxOCIgcG9pbnRzPSIxODQsNjIxLjQzNzUsMTc0LDYyNS40Mzc1LDE4NCw2MjkuNDM3NSwxODAsNjI1LjQzNzUiIHN0eWxlPSJzdHJva2U6IzE4MTgxODtzdHJva2Utd2lkdGg6MTsiLz48bGluZSBzdHlsZT0ic3Ryb2tlOiMxODE4MTg7c3Ryb2tlLXdpZHRoOjI7c3Ryb2tlLWRhc2hhcnJheToyLjAsMi4wOyIgeDE9IjE3OCIgeDI9IjMxMS41IiB5MT0iNjI1LjQzNzUiIHkyPSI2MjUuNDM3NSIvPjx0ZXh0IGZpbGw9IiMwMDAwMDAiIGZvbnQtZmFtaWx5PSJzYW5zLXNlcmlmIiBmb250LXNpemU9IjEzIiBsZW5ndGhBZGp1c3Q9InNwYWNpbmciIHRleHRMZW5ndGg9Ijk3LjUiIHg9IjE5MCIgeT0iNjIxLjgxMjUiPjIuOTogJiMyMTAyMTsmIzIyOTg3OyYjMjEyNzA7JiMyMzQzNjsmIzI1MTA0OzwvdGV4dD48L2c+PGcgY2xhc3M9Im1lc3NhZ2UiIGRhdGEtcGFydGljaXBhbnQtMT0iVUkiIGRhdGEtcGFydGljaXBhbnQtMj0iVXNlciI+PHBvbHlnb24gZmlsbD0iIzE4MTgxOCIgcG9pbnRzPSIzMyw2NDkuMzUxNiwyMyw2NTMuMzUxNiwzMyw2NTcuMzUxNiwyOSw2NTMuMzUxNiIgc3R5bGU9InN0cm9rZTojMTgxODE4O3N0cm9rZS13aWR0aDoxOyIvPjxsaW5lIHN0eWxlPSJzdHJva2U6IzE4MTgxODtzdHJva2Utd2lkdGg6MjtzdHJva2UtZGFzaGFycmF5OjIuMCwyLjA7IiB4MT0iMjciIHgyPSIxNjciIHkxPSI2NTMuMzUxNiIgeTI9IjY1My4zNTE2Ii8+PHRleHQgZmlsbD0iIzAwMDAwMCIgZm9udC1mYW1pbHk9InNhbnMtc2VyaWYiIGZvbnQtc2l6ZT0iMTMiIGxlbmd0aEFkanVzdD0ic3BhY2luZyIgdGV4dExlbmd0aD0iMTE3IiB4PSIzOSIgeT0iNjQ5LjcyNjYiPjIuMTA6ICYjMjYxNzQ7JiMzMTAzNDsmIzI4MjE2OyYjMjUxMDM7JiMzMDAyODsmIzM4NzU0OzwvdGV4dD48L2c+PHJlY3QgZmlsbD0iI0VFRUVFRSIgaGVpZ2h0PSIzIiByeD0iMi41IiByeT0iMi41IiBzdHlsZT0ic3Ryb2tlOiNFRUVFRUU7c3Ryb2tlLXdpZHRoOjE7IiB3aWR0aD0iOTk3IiB4PSIwIiB5PSI2ODEuMzA4NiIvPjxsaW5lIHN0eWxlPSJzdHJva2U6IzAwMDAwMDtzdHJva2Utd2lkdGg6MTsiIHgxPSIwIiB4Mj0iOTk3IiB5MT0iNjgxLjMwODYiIHkyPSI2ODEuMzA4NiIvPjxsaW5lIHN0eWxlPSJzdHJva2U6IzAwMDAwMDtzdHJva2Utd2lkdGg6MTsiIHgxPSIwIiB4Mj0iOTk3IiB5MT0iNjg0LjMwODYiIHkyPSI2ODQuMzA4NiIvPjxyZWN0IGZpbGw9IiNFRUVFRUUiIGhlaWdodD0iMjEuOTE0MSIgcng9IjIuNSIgcnk9IjIuNSIgc3R5bGU9InN0cm9rZTojMDAwMDAwO3N0cm9rZS13aWR0aDoyOyIgd2lkdGg9Ijk4LjUiIHg9IjQ0OS4yNSIgeT0iNjcxLjM1MTYiLz48dGV4dCBmaWxsPSIjMDAwMDAwIiBmb250LWZhbWlseT0ic2Fucy1zZXJpZiIgZm9udC1zaXplPSIxMyIgZm9udC13ZWlnaHQ9ImJvbGQiIGxlbmd0aEFkanVzdD0ic3BhY2luZyIgdGV4dExlbmd0aD0iNzgiIHg9IjQ1NS4yNSIgeT0iNjg3LjY0MDYiPiYjMjgyMTY7JiMyNTEwMzsmIzM2ODE2OyYjMzQ4OTI7JiMzODQ1NDsmIzI3NTczOzwvdGV4dD48ZyBjbGFzcz0ibWVzc2FnZSIgZGF0YS1wYXJ0aWNpcGFudC0xPSJVc2VyIiBkYXRhLXBhcnRpY2lwYW50LTI9IlVJIj48cG9seWdvbiBmaWxsPSIjMTgxODE4IiBwb2ludHM9IjE1MSw3MTkuMTc5NywxNjEsNzIzLjE3OTcsMTUxLDcyNy4xNzk3LDE1NSw3MjMuMTc5NyIgc3R5bGU9InN0cm9rZTojMTgxODE4O3N0cm9rZS13aWR0aDoxOyIvPjxsaW5lIHN0eWxlPSJzdHJva2U6IzE4MTgxODtzdHJva2Utd2lkdGg6MjsiIHgxPSIyMiIgeDI9IjE1NyIgeTE9IjcyMy4xNzk3IiB5Mj0iNzIzLjE3OTciLz48dGV4dCBmaWxsPSIjMDAwMDAwIiBmb250LWZhbWlseT0ic2Fucy1zZXJpZiIgZm9udC1zaXplPSIxMyIgbGVuZ3RoQWRqdXN0PSJzcGFjaW5nIiB0ZXh0TGVuZ3RoPSI4NC41IiB4PSIyOSIgeT0iNzE5LjU1NDciPjMuMTogJiMyODIxNjsmIzI1MTAzOyYjMjU4MDU7JiMyMDMxNjs8L3RleHQ+PC9nPjxnIGNsYXNzPSJtZXNzYWdlIiBkYXRhLXBhcnRpY2lwYW50LTE9IlVJIiBkYXRhLXBhcnRpY2lwYW50LTI9IkNoYXJDdHJsIj48cG9seWdvbiBmaWxsPSIjMTgxODE4IiBwb2ludHM9IjQ0Ni41LDc0Ny4wOTM4LDQ1Ni41LDc1MS4wOTM4LDQ0Ni41LDc1NS4wOTM4LDQ1MC41LDc1MS4wOTM4IiBzdHlsZT0ic3Ryb2tlOiMxODE4MTg7c3Ryb2tlLXdpZHRoOjE7Ii8+PGxpbmUgc3R5bGU9InN0cm9rZTojMTgxODE4O3N0cm9rZS13aWR0aDoyOyIgeDE9IjE3MyIgeDI9IjQ1Mi41IiB5MT0iNzUxLjA5MzgiIHkyPSI3NTEuMDkzOCIvPjx0ZXh0IGZpbGw9IiMwMDAwMDAiIGZvbnQtZmFtaWx5PSJzYW5zLXNlcmlmIiBmb250LXNpemU9IjEzIiBsZW5ndGhBZGp1c3Q9InNwYWNpbmciIHRleHRMZW5ndGg9IjExMC41IiB4PSIxODAiIHk9Ijc0Ny40Njg4Ij4zLjI6ICYjMjAyNTY7JiMzNjg4MjsmIzI1NTExOyYjMjEwNDY7JiMyNTM1MTsmIzIwMTk2OzwvdGV4dD48L2c+PGcgY2xhc3M9Im1lc3NhZ2UiIGRhdGEtcGFydGljaXBhbnQtMT0iQ2hhckN0cmwiIGRhdGEtcGFydGljaXBhbnQtMj0iQ2hhckN0cmwiPjxsaW5lIHN0eWxlPSJzdHJva2U6IzE4MTgxODtzdHJva2Utd2lkdGg6MjsiIHgxPSI0NjguNSIgeDI9IjUxMC41IiB5MT0iNzc5LjAwNzgiIHkyPSI3NzkuMDA3OCIvPjxsaW5lIHN0eWxlPSJzdHJva2U6IzE4MTgxODtzdHJva2Utd2lkdGg6MjsiIHgxPSI1MTAuNSIgeDI9IjUxMC41IiB5MT0iNzc5LjAwNzgiIHkyPSI3OTIuMDA3OCIvPjxsaW5lIHN0eWxlPSJzdHJva2U6IzE4MTgxODtzdHJva2Utd2lkdGg6MjsiIHgxPSI0NjkuNSIgeDI9IjUxMC41IiB5MT0iNzkyLjAwNzgiIHkyPSI3OTIuMDA3OCIvPjxwb2x5Z29uIGZpbGw9IiMxODE4MTgiIHBvaW50cz0iNDc5LjUsNzg4LjAwNzgsNDY5LjUsNzkyLjAwNzgsNDc5LjUsNzk2LjAwNzgsNDc1LjUsNzkyLjAwNzgiIHN0eWxlPSJzdHJva2U6IzE4MTgxODtzdHJva2Utd2lkdGg6MTsiLz48dGV4dCBmaWxsPSIjMDAwMDAwIiBmb250LWZhbWlseT0ic2Fucy1zZXJpZiIgZm9udC1zaXplPSIxMyIgbGVuZ3RoQWRqdXN0PSJzcGFjaW5nIiB0ZXh0TGVuZ3RoPSIxMTAuNSIgeD0iNDc1LjUiIHk9Ijc3NS4zODI4Ij4zLjM6ICYjMjYzNTY7JiMyNjAzMjsmIzM1MjgyOyYjMzMzOTQ7JiMyOTM2NjsmIzI0NTc3OzwvdGV4dD48L2c+PGcgY2xhc3M9Im1lc3NhZ2UiIGRhdGEtcGFydGljaXBhbnQtMT0iQ2hhckN0cmwiIGRhdGEtcGFydGljaXBhbnQtMj0iQ29sbGlzaW9uIj48cG9seWdvbiBmaWxsPSIjMTgxODE4IiBwb2ludHM9IjY3OCw4MTUuOTIxOSw2ODgsODE5LjkyMTksNjc4LDgyMy45MjE5LDY4Miw4MTkuOTIxOSIgc3R5bGU9InN0cm9rZTojMTgxODE4O3N0cm9rZS13aWR0aDoxOyIvPjxsaW5lIHN0eWxlPSJzdHJva2U6IzE4MTgxODtzdHJva2Utd2lkdGg6MjsiIHgxPSI0NjguNSIgeDI9IjY4NCIgeTE9IjgxOS45MjE5IiB5Mj0iODE5LjkyMTkiLz48dGV4dCBmaWxsPSIjMDAwMDAwIiBmb250LWZhbWlseT0ic2Fucy1zZXJpZiIgZm9udC1zaXplPSIxMyIgbGVuZ3RoQWRqdXN0PSJzcGFjaW5nIiB0ZXh0TGVuZ3RoPSI4NC41IiB4PSI0NzUuNSIgeT0iODE2LjI5NjkiPjMuNDogJiMyNjgxNjsmIzI3OTc5OyYjMzA4OTY7JiMyNTc1ODs8L3RleHQ+PC9nPjxnIGNsYXNzPSJtZXNzYWdlIiBkYXRhLXBhcnRpY2lwYW50LTE9IkNvbGxpc2lvbiIgZGF0YS1wYXJ0aWNpcGFudC0yPSJDb2xsaXNpb24iPjxsaW5lIHN0eWxlPSJzdHJva2U6IzE4MTgxODtzdHJva2Utd2lkdGg6MjsiIHgxPSI3MDAiIHgyPSI3NDIiIHkxPSI4NDcuODM1OSIgeTI9Ijg0Ny44MzU5Ii8+PGxpbmUgc3R5bGU9InN0cm9rZTojMTgxODE4O3N0cm9rZS13aWR0aDoyOyIgeDE9Ijc0MiIgeDI9Ijc0MiIgeTE9Ijg0Ny44MzU5IiB5Mj0iODYwLjgzNTkiLz48bGluZSBzdHlsZT0ic3Ryb2tlOiMxODE4MTg7c3Ryb2tlLXdpZHRoOjI7IiB4MT0iNzAxIiB4Mj0iNzQyIiB5MT0iODYwLjgzNTkiIHkyPSI4NjAuODM1OSIvPjxwb2x5Z29uIGZpbGw9IiMxODE4MTgiIHBvaW50cz0iNzExLDg1Ni44MzU5LDcwMSw4NjAuODM1OSw3MTEsODY0LjgzNTksNzA3LDg2MC44MzU5IiBzdHlsZT0ic3Ryb2tlOiMxODE4MTg7c3Ryb2tlLXdpZHRoOjE7Ii8+PHRleHQgZmlsbD0iIzAwMDAwMCIgZm9udC1mYW1pbHk9InNhbnMtc2VyaWYiIGZvbnQtc2l6ZT0iMTMiIGxlbmd0aEFkanVzdD0ic3BhY2luZyIgdGV4dExlbmd0aD0iMTEwLjUiIHg9IjcwNyIgeT0iODQ0LjIxMDkiPjMuNTogJiMzNTc0NTsmIzMxNjM5OyYjMzA4OTY7JiMyNTc1ODsmIzMyNDY3OyYjMjY1MjQ7PC90ZXh0PjwvZz48ZyBjbGFzcz0ibWVzc2FnZSIgZGF0YS1wYXJ0aWNpcGFudC0xPSJDb2xsaXNpb24iIGRhdGEtcGFydGljaXBhbnQtMj0iQ2hhckN0cmwiPjxwb2x5Z29uIGZpbGw9IiMxODE4MTgiIHBvaW50cz0iNDc5LjUsODg0Ljc1LDQ2OS41LDg4OC43NSw0NzkuNSw4OTIuNzUsNDc1LjUsODg4Ljc1IiBzdHlsZT0ic3Ryb2tlOiMxODE4MTg7c3Ryb2tlLXdpZHRoOjE7Ii8+PGxpbmUgc3R5bGU9InN0cm9rZTojMTgxODE4O3N0cm9rZS13aWR0aDoyO3N0cm9rZS1kYXNoYXJyYXk6Mi4wLDIuMDsiIHgxPSI0NzMuNSIgeDI9IjY5NCIgeTE9Ijg4OC43NSIgeTI9Ijg4OC43NSIvPjx0ZXh0IGZpbGw9IiMwMDAwMDAiIGZvbnQtZmFtaWx5PSJzYW5zLXNlcmlmIiBmb250LXNpemU9IjEzIiBsZW5ndGhBZGp1c3Q9InNwYWNpbmciIHRleHRMZW5ndGg9IjExMC41IiB4PSI0ODUuNSIgeT0iODg1LjEyNSI+My42OiAmIzM2ODIwOyYjMjIyMzg7JiMzMDg5NjsmIzI1NzU4OyYjMzI0Njc7JiMyNjUyNDs8L3RleHQ+PC9nPjxnIGNsYXNzPSJtZXNzYWdlIiBkYXRhLXBhcnRpY2lwYW50LTE9IkNoYXJDdHJsIiBkYXRhLXBhcnRpY2lwYW50LTI9IkdhbWVNZ3IiPjxwb2x5Z29uIGZpbGw9IiMxODE4MTgiIHBvaW50cz0iMzI4LjUsOTEyLjY2NDEsMzE4LjUsOTE2LjY2NDEsMzI4LjUsOTIwLjY2NDEsMzI0LjUsOTE2LjY2NDEiIHN0eWxlPSJzdHJva2U6IzE4MTgxODtzdHJva2Utd2lkdGg6MTsiLz48bGluZSBzdHlsZT0ic3Ryb2tlOiMxODE4MTg7c3Ryb2tlLXdpZHRoOjI7IiB4MT0iMzIyLjUiIHgyPSI0NTcuNSIgeTE9IjkxNi42NjQxIiB5Mj0iOTE2LjY2NDEiLz48dGV4dCBmaWxsPSIjMDAwMDAwIiBmb250LWZhbWlseT0ic2Fucy1zZXJpZiIgZm9udC1zaXplPSIxMyIgbGVuZ3RoQWRqdXN0PSJzcGFjaW5nIiB0ZXh0TGVuZ3RoPSIxMTAuNSIgeD0iMzM0LjUiIHk9IjkxMy4wMzkxIj4zLjc6ICYjMjE0NTc7JiMzNjg2NTsmIzI5MzY2OyYjMjQ1Nzc7JiMyNjM1NjsmIzI2MDMyOzwvdGV4dD48L2c+PGcgY2xhc3M9Im1lc3NhZ2UiIGRhdGEtcGFydGljaXBhbnQtMT0iR2FtZU1nciIgZGF0YS1wYXJ0aWNpcGFudC0yPSJUcmFja01nciI+PHBvbHlnb24gZmlsbD0iIzE4MTgxOCIgcG9pbnRzPSI1OTEsOTQwLjU3ODEsNjAxLDk0NC41NzgxLDU5MSw5NDguNTc4MSw1OTUsOTQ0LjU3ODEiIHN0eWxlPSJzdHJva2U6IzE4MTgxODtzdHJva2Utd2lkdGg6MTsiLz48bGluZSBzdHlsZT0ic3Ryb2tlOiMxODE4MTg7c3Ryb2tlLXdpZHRoOjI7IiB4MT0iMzE3LjUiIHgyPSI1OTciIHkxPSI5NDQuNTc4MSIgeTI9Ijk0NC41NzgxIi8+PHRleHQgZmlsbD0iIzAwMDAwMCIgZm9udC1mYW1pbHk9InNhbnMtc2VyaWYiIGZvbnQtc2l6ZT0iMTMiIGxlbmd0aEFkanVzdD0ic3BhY2luZyIgdGV4dExlbmd0aD0iMTIzLjUiIHg9IjMyNC41IiB5PSI5NDAuOTUzMSI+My44OiAmIzI5OTgzOyYjMjUxMDQ7JiMyNjAzMjsmIzM2NzEyOyYjMzY5NDc7JiMyNzU3MzsmIzMzODUzOzwvdGV4dD48L2c+PGcgY2xhc3M9Im1lc3NhZ2UiIGRhdGEtcGFydGljaXBhbnQtMT0iVHJhY2tNZ3IiIGRhdGEtcGFydGljaXBhbnQtMj0iR2FtZU1nciI+PHBvbHlnb24gZmlsbD0iIzE4MTgxOCIgcG9pbnRzPSIzMjguNSw5NjguNDkyMiwzMTguNSw5NzIuNDkyMiwzMjguNSw5NzYuNDkyMiwzMjQuNSw5NzIuNDkyMiIgc3R5bGU9InN0cm9rZTojMTgxODE4O3N0cm9rZS13aWR0aDoxOyIvPjxsaW5lIHN0eWxlPSJzdHJva2U6IzE4MTgxODtzdHJva2Utd2lkdGg6MjtzdHJva2UtZGFzaGFycmF5OjIuMCwyLjA7IiB4MT0iMzIyLjUiIHgyPSI2MDciIHkxPSI5NzIuNDkyMiIgeTI9Ijk3Mi40OTIyIi8+PHRleHQgZmlsbD0iIzAwMDAwMCIgZm9udC1mYW1pbHk9InNhbnMtc2VyaWYiIGZvbnQtc2l6ZT0iMTMiIGxlbmd0aEFkanVzdD0ic3BhY2luZyIgdGV4dExlbmd0aD0iMTEwLjUiIHg9IjMzNC41IiB5PSI5NjguODY3MiI+My45OiAmIzM2NzEyOyYjMzY5NDc7JiMyOTk4MzsmIzI1MTA0OyYjMjM0MzY7JiMyNTEwNDs8L3RleHQ+PC9nPjxnIGNsYXNzPSJtZXNzYWdlIiBkYXRhLXBhcnRpY2lwYW50LTE9IkdhbWVNZ3IiIGRhdGEtcGFydGljaXBhbnQtMj0iRGF0YU1nciI+PHBvbHlnb24gZmlsbD0iIzE4MTgxOCIgcG9pbnRzPSI4MjIuNSw5OTYuNDA2Myw4MzIuNSwxMDAwLjQwNjMsODIyLjUsMTAwNC40MDYzLDgyNi41LDEwMDAuNDA2MyIgc3R5bGU9InN0cm9rZTojMTgxODE4O3N0cm9rZS13aWR0aDoxOyIvPjxsaW5lIHN0eWxlPSJzdHJva2U6IzE4MTgxODtzdHJva2Utd2lkdGg6MjsiIHgxPSIzMTcuNSIgeDI9IjgyOC41IiB5MT0iMTAwMC40MDYzIiB5Mj0iMTAwMC40MDYzIi8+PHRleHQgZmlsbD0iIzAwMDAwMCIgZm9udC1mYW1pbHk9InNhbnMtc2VyaWYiIGZvbnQtc2l6ZT0iMTMiIGxlbmd0aEFkanVzdD0ic3BhY2luZyIgdGV4dExlbmd0aD0iMTE3IiB4PSIzMjQuNSIgeT0iOTk2Ljc4MTMiPjMuMTA6ICYjMjYzNTY7JiMyNjAzMjsmIzI4MjE2OyYjMjUxMDM7JiMyNTk2ODsmIzI1NDU0OzwvdGV4dD48L2c+PGcgY2xhc3M9Im1lc3NhZ2UiIGRhdGEtcGFydGljaXBhbnQtMT0iRGF0YU1nciIgZGF0YS1wYXJ0aWNpcGFudC0yPSJHYW1lTWdyIj48cG9seWdvbiBmaWxsPSIjMTgxODE4IiBwb2ludHM9IjMyOC41LDEwMjQuMzIwMywzMTguNSwxMDI4LjMyMDMsMzI4LjUsMTAzMi4zMjAzLDMyNC41LDEwMjguMzIwMyIgc3R5bGU9InN0cm9rZTojMTgxODE4O3N0cm9rZS13aWR0aDoxOyIvPjxsaW5lIHN0eWxlPSJzdHJva2U6IzE4MTgxODtzdHJva2Utd2lkdGg6MjtzdHJva2UtZGFzaGFycmF5OjIuMCwyLjA7IiB4MT0iMzIyLjUiIHgyPSI4MzguNSIgeTE9IjEwMjguMzIwMyIgeTI9IjEwMjguMzIwMyIvPjx0ZXh0IGZpbGw9IiMwMDAwMDAiIGZvbnQtZmFtaWx5PSJzYW5zLXNlcmlmIiBmb250LXNpemU9IjEzIiBsZW5ndGhBZGp1c3Q9InNwYWNpbmciIHRleHRMZW5ndGg9IjExNyIgeD0iMzM0LjUiIHk9IjEwMjQuNjk1MyI+My4xMTogJiMyNTk2ODsmIzI1NDU0OyYjMjYzNTY7JiMyNjAzMjsmIzMwODMwOyYjMzU3NDg7PC90ZXh0PjwvZz48ZyBjbGFzcz0ibWVzc2FnZSIgZGF0YS1wYXJ0aWNpcGFudC0xPSJHYW1lTWdyIiBkYXRhLXBhcnRpY2lwYW50LTI9IkNoYXJDdHJsIj48cG9seWdvbiBmaWxsPSIjMTgxODE4IiBwb2ludHM9IjQ0Ni41LDEwNTIuMjM0NCw0NTYuNSwxMDU2LjIzNDQsNDQ2LjUsMTA2MC4yMzQ0LDQ1MC41LDEwNTYuMjM0NCIgc3R5bGU9InN0cm9rZTojMTgxODE4O3N0cm9rZS13aWR0aDoxOyIvPjxsaW5lIHN0eWxlPSJzdHJva2U6IzE4MTgxODtzdHJva2Utd2lkdGg6MjtzdHJva2UtZGFzaGFycmF5OjIuMCwyLjA7IiB4MT0iMzEyLjUiIHgyPSI0NTIuNSIgeTE9IjEwNTYuMjM0NCIgeTI9IjEwNTYuMjM0NCIvPjx0ZXh0IGZpbGw9IiMwMDAwMDAiIGZvbnQtZmFtaWx5PSJzYW5zLXNlcmlmIiBmb250LXNpemU9IjEzIiBsZW5ndGhBZGp1c3Q9InNwYWNpbmciIHRleHRMZW5ndGg9IjExNyIgeD0iMzE5LjUiIHk9IjEwNTIuNjA5NCI+My4xMjogJiMyOTM2NjsmIzI0NTc3OyYjMjYzNTY7JiMyNjAzMjsmIzMwODMwOyYjMzU3NDg7PC90ZXh0PjwvZz48ZyBjbGFzcz0ibWVzc2FnZSIgZGF0YS1wYXJ0aWNpcGFudC0xPSJDaGFyQ3RybCIgZGF0YS1wYXJ0aWNpcGFudC0yPSJVSSI+PHBvbHlnb24gZmlsbD0iIzE4MTgxOCIgcG9pbnRzPSIxODQsMTA4MC4xNDg0LDE3NCwxMDg0LjE0ODQsMTg0LDEwODguMTQ4NCwxODAsMTA4NC4xNDg0IiBzdHlsZT0ic3Ryb2tlOiMxODE4MTg7c3Ryb2tlLXdpZHRoOjE7Ii8+PGxpbmUgc3R5bGU9InN0cm9rZTojMTgxODE4O3N0cm9rZS13aWR0aDoyO3N0cm9rZS1kYXNoYXJyYXk6Mi4wLDIuMDsiIHgxPSIxNzgiIHgyPSI0NjIuNSIgeTE9IjEwODQuMTQ4NCIgeTI9IjEwODQuMTQ4NCIvPjx0ZXh0IGZpbGw9IiMwMDAwMDAiIGZvbnQtZmFtaWx5PSJzYW5zLXNlcmlmIiBmb250LXNpemU9IjEzIiBsZW5ndGhBZGp1c3Q9InNwYWNpbmciIHRleHRMZW5ndGg9IjExNyIgeD0iMTkwIiB5PSIxMDgwLjUyMzQiPjMuMTM6ICYjMzY4MjA7JiMyMjIzODsmIzI5MzY2OyYjMjQ1Nzc7JiMyNjM1NjsmIzI2MDMyOzwvdGV4dD48L2c+PGcgY2xhc3M9Im1lc3NhZ2UiIGRhdGEtcGFydGljaXBhbnQtMT0iVUkiIGRhdGEtcGFydGljaXBhbnQtMj0iVXNlciI+PHBvbHlnb24gZmlsbD0iIzE4MTgxOCIgcG9pbnRzPSIzMywxMTA4LjA2MjUsMjMsMTExMi4wNjI1LDMzLDExMTYuMDYyNSwyOSwxMTEyLjA2MjUiIHN0eWxlPSJzdHJva2U6IzE4MTgxODtzdHJva2Utd2lkdGg6MTsiLz48bGluZSBzdHlsZT0ic3Ryb2tlOiMxODE4MTg7c3Ryb2tlLXdpZHRoOjI7c3Ryb2tlLWRhc2hhcnJheToyLjAsMi4wOyIgeDE9IjI3IiB4Mj0iMTY3IiB5MT0iMTExMi4wNjI1IiB5Mj0iMTExMi4wNjI1Ii8+PHRleHQgZmlsbD0iIzAwMDAwMCIgZm9udC1mYW1pbHk9InNhbnMtc2VyaWYiIGZvbnQtc2l6ZT0iMTMiIGxlbmd0aEFkanVzdD0ic3BhY2luZyIgdGV4dExlbmd0aD0iMTE3IiB4PSIzOSIgeT0iMTEwOC40Mzc1Ij4zLjE0OiAmIzI2MzU2OyYjMjYwMzI7JiMyODIxNjsmIzI1MTAzOyYjMzAwMTE7JiMzODc1NDs8L3RleHQ+PC9nPjxyZWN0IGZpbGw9IiNFRUVFRUUiIGhlaWdodD0iMyIgcng9IjIuNSIgcnk9IjIuNSIgc3R5bGU9InN0cm9rZTojRUVFRUVFO3N0cm9rZS13aWR0aDoxOyIgd2lkdGg9Ijk5NyIgeD0iMCIgeT0iMTE0MC4wMTk1Ii8+PGxpbmUgc3R5bGU9InN0cm9rZTojMDAwMDAwO3N0cm9rZS13aWR0aDoxOyIgeDE9IjAiIHgyPSI5OTciIHkxPSIxMTQwLjAxOTUiIHkyPSIxMTQwLjAxOTUiLz48bGluZSBzdHlsZT0ic3Ryb2tlOiMwMDAwMDA7c3Ryb2tlLXdpZHRoOjE7IiB4MT0iMCIgeDI9Ijk5NyIgeTE9IjExNDMuMDE5NSIgeTI9IjExNDMuMDE5NSIvPjxyZWN0IGZpbGw9IiNFRUVFRUUiIGhlaWdodD0iMjEuOTE0MSIgcng9IjIuNSIgcnk9IjIuNSIgc3R5bGU9InN0cm9rZTojMDAwMDAwO3N0cm9rZS13aWR0aDoyOyIgd2lkdGg9Ijk4LjUiIHg9IjQ0OS4yNSIgeT0iMTEzMC4wNjI1Ii8+PHRleHQgZmlsbD0iIzAwMDAwMCIgZm9udC1mYW1pbHk9InNhbnMtc2VyaWYiIGZvbnQtc2l6ZT0iMTMiIGZvbnQtd2VpZ2h0PSJib2xkIiBsZW5ndGhBZGp1c3Q9InNwYWNpbmciIHRleHRMZW5ndGg9Ijc4IiB4PSI0NTUuMjUiIHk9IjExNDYuMzUxNiI+JiMyNTEwNDsmIzMyNDg5OyYjMzU3NjA7JiMyNDQwNTsmIzM4NDU0OyYjMjc1NzM7PC90ZXh0PjxnIGNsYXNzPSJtZXNzYWdlIiBkYXRhLXBhcnRpY2lwYW50LTE9IkdhbWVNZ3IiIGRhdGEtcGFydGljaXBhbnQtMj0iR2FtZU1nciI+PGxpbmUgc3R5bGU9InN0cm9rZTojMTgxODE4O3N0cm9rZS13aWR0aDoyOyIgeDE9IjMxMi41IiB4Mj0iMzU5LjUiIHkxPSIxMTc2Ljg5MDYiIHkyPSIxMTc2Ljg5MDYiLz48bGluZSBzdHlsZT0ic3Ryb2tlOiMxODE4MTg7c3Ryb2tlLXdpZHRoOjI7IiB4MT0iMzU5LjUiIHgyPSIzNTkuNSIgeTE9IjExNzYuODkwNiIgeTI9IjExODkuODkwNiIvPjxsaW5lIHN0eWxlPSJzdHJva2U6IzE4MTgxODtzdHJva2Utd2lkdGg6MjsiIHgxPSIzMTguNSIgeDI9IjM1OS41IiB5MT0iMTE4OS44OTA2IiB5Mj0iMTE4OS44OTA2Ii8+PHBvbHlnb24gZmlsbD0iIzE4MTgxOCIgcG9pbnRzPSIzMjguNSwxMTg1Ljg5MDYsMzE4LjUsMTE4OS44OTA2LDMyOC41LDExOTMuODkwNiwzMjQuNSwxMTg5Ljg5MDYiIHN0eWxlPSJzdHJva2U6IzE4MTgxODtzdHJva2Utd2lkdGg6MTsiLz48dGV4dCBmaWxsPSIjMDAwMDAwIiBmb250LWZhbWlseT0ic2Fucy1zZXJpZiIgZm9udC1zaXplPSIxMyIgbGVuZ3RoQWRqdXN0PSJzcGFjaW5nIiB0ZXh0TGVuZ3RoPSIxMTAuNSIgeD0iMzI0LjUiIHk9IjExNzMuMjY1NiI+NC4xOiAmIzMyNDc5OyYjMzU3NDU7JiMyODIxNjsmIzI1MTAzOyYjMzI0Njc7JiMyNjUyNDs8L3RleHQ+PC9nPjxnIGNsYXNzPSJtZXNzYWdlIiBkYXRhLXBhcnRpY2lwYW50LTE9IkdhbWVNZ3IiIGRhdGEtcGFydGljaXBhbnQtMj0iRGF0YU1nciI+PHBvbHlnb24gZmlsbD0iIzE4MTgxOCIgcG9pbnRzPSI4MjIuNSwxMjE4LjgwNDcsODMyLjUsMTIyMi44MDQ3LDgyMi41LDEyMjYuODA0Nyw4MjYuNSwxMjIyLjgwNDciIHN0eWxlPSJzdHJva2U6IzE4MTgxODtzdHJva2Utd2lkdGg6MTsiLz48bGluZSBzdHlsZT0ic3Ryb2tlOiMxODE4MTg7c3Ryb2tlLXdpZHRoOjI7IiB4MT0iMzE3LjUiIHgyPSI4MjguNSIgeTE9IjEyMjIuODA0NyIgeTI9IjEyMjIuODA0NyIvPjx0ZXh0IGZpbGw9IiMwMDAwMDAiIGZvbnQtZmFtaWx5PSJzYW5zLXNlcmlmIiBmb250LXNpemU9IjEzIiBsZW5ndGhBZGp1c3Q9InNwYWNpbmciIHRleHRMZW5ndGg9IjExMC41IiB4PSIzMjQuNSIgeT0iMTIxOS4xNzk3Ij40LjI6ICYjMjA0NDU7JiMyMzM4NDsmIzI4MjE2OyYjMjUxMDM7JiMyNTEwNDsmIzMyNDg5OzwvdGV4dD48L2c+PGcgY2xhc3M9Im1lc3NhZ2UiIGRhdGEtcGFydGljaXBhbnQtMT0iRGF0YU1nciIgZGF0YS1wYXJ0aWNpcGFudC0yPSJEYXRhTWdyIj48bGluZSBzdHlsZT0ic3Ryb2tlOiMxODE4MTg7c3Ryb2tlLXdpZHRoOjI7IiB4MT0iODQ0LjUiIHgyPSI4ODYuNSIgeTE9IjEyNTAuNzE4OCIgeTI9IjEyNTAuNzE4OCIvPjxsaW5lIHN0eWxlPSJzdHJva2U6IzE4MTgxODtzdHJva2Utd2lkdGg6MjsiIHgxPSI4ODYuNSIgeDI9Ijg4Ni41IiB5MT0iMTI1MC43MTg4IiB5Mj0iMTI2My43MTg4Ii8+PGxpbmUgc3R5bGU9InN0cm9rZTojMTgxODE4O3N0cm9rZS13aWR0aDoyOyIgeDE9Ijg0NS41IiB4Mj0iODg2LjUiIHkxPSIxMjYzLjcxODgiIHkyPSIxMjYzLjcxODgiLz48cG9seWdvbiBmaWxsPSIjMTgxODE4IiBwb2ludHM9Ijg1NS41LDEyNTkuNzE4OCw4NDUuNSwxMjYzLjcxODgsODU1LjUsMTI2Ny43MTg4LDg1MS41LDEyNjMuNzE4OCIgc3R5bGU9InN0cm9rZTojMTgxODE4O3N0cm9rZS13aWR0aDoxOyIvPjx0ZXh0IGZpbGw9IiMwMDAwMDAiIGZvbnQtZmFtaWx5PSJzYW5zLXNlcmlmIiBmb250LXNpemU9IjEzIiBsZW5ndGhBZGp1c3Q9InNwYWNpbmciIHRleHRMZW5ndGg9IjEyMy41IiB4PSI4NTEuNSIgeT0iMTI0Ny4wOTM4Ij40LjM6ICYjMjUxOTE7JiMzNDg5MjsmIzI1OTY4OyYjMjU0NTQ7JiMyNTM0NTsmIzIwMDM3OyYjMjEyNzA7PC90ZXh0PjwvZz48ZyBjbGFzcz0ibWVzc2FnZSIgZGF0YS1wYXJ0aWNpcGFudC0xPSJEYXRhTWdyIiBkYXRhLXBhcnRpY2lwYW50LTI9IkdhbWVNZ3IiPjxwb2x5Z29uIGZpbGw9IiMxODE4MTgiIHBvaW50cz0iMzI4LjUsMTI4Ny42MzI4LDMxOC41LDEyOTEuNjMyOCwzMjguNSwxMjk1LjYzMjgsMzI0LjUsMTI5MS42MzI4IiBzdHlsZT0ic3Ryb2tlOiMxODE4MTg7c3Ryb2tlLXdpZHRoOjE7Ii8+PGxpbmUgc3R5bGU9InN0cm9rZTojMTgxODE4O3N0cm9rZS13aWR0aDoyO3N0cm9rZS1kYXNoYXJyYXk6Mi4wLDIuMDsiIHgxPSIzMjIuNSIgeDI9IjgzOC41IiB5MT0iMTI5MS42MzI4IiB5Mj0iMTI5MS42MzI4Ii8+PHRleHQgZmlsbD0iIzAwMDAwMCIgZm9udC1mYW1pbHk9InNhbnMtc2VyaWYiIGZvbnQtc2l6ZT0iMTMiIGxlbmd0aEFkanVzdD0ic3BhY2luZyIgdGV4dExlbmd0aD0iMTEwLjUiIHg9IjMzNC41IiB5PSIxMjg4LjAwNzgiPjQuNDogJiMzNjgyMDsmIzIyMjM4OyYjMjA0NDU7JiMyMzM4NDsmIzMyNDY3OyYjMjY1MjQ7PC90ZXh0PjwvZz48ZyBjbGFzcz0ibWVzc2FnZSIgZGF0YS1wYXJ0aWNpcGFudC0xPSJHYW1lTWdyIiBkYXRhLXBhcnRpY2lwYW50LTI9IlVJIj48cG9seWdvbiBmaWxsPSIjMTgxODE4IiBwb2ludHM9IjE4NCwxMzE1LjU0NjksMTc0LDEzMTkuNTQ2OSwxODQsMTMyMy41NDY5LDE4MCwxMzE5LjU0NjkiIHN0eWxlPSJzdHJva2U6IzE4MTgxODtzdHJva2Utd2lkdGg6MTsiLz48bGluZSBzdHlsZT0ic3Ryb2tlOiMxODE4MTg7c3Ryb2tlLXdpZHRoOjI7IiB4MT0iMTc4IiB4Mj0iMzA2LjUiIHkxPSIxMzE5LjU0NjkiIHkyPSIxMzE5LjU0NjkiLz48dGV4dCBmaWxsPSIjMDAwMDAwIiBmb250LWZhbWlseT0ic2Fucy1zZXJpZiIgZm9udC1zaXplPSIxMyIgbGVuZ3RoQWRqdXN0PSJzcGFjaW5nIiB0ZXh0TGVuZ3RoPSIxMTAuNSIgeD0iMTkwIiB5PSIxMzE1LjkyMTkiPjQuNTogJiMyMTQ1NzsmIzM2ODY1OyYjMzI0Njc7JiMyNjUyNDsmIzI1OTY4OyYjMjU0NTQ7PC90ZXh0PjwvZz48ZyBjbGFzcz0ibWVzc2FnZSIgZGF0YS1wYXJ0aWNpcGFudC0xPSJVSSIgZGF0YS1wYXJ0aWNpcGFudC0yPSJHYW1lTWdyIj48cG9seWdvbiBmaWxsPSIjMTgxODE4IiBwb2ludHM9IjMwMC41LDEzNDMuNDYwOSwzMTAuNSwxMzQ3LjQ2MDksMzAwLjUsMTM1MS40NjA5LDMwNC41LDEzNDcuNDYwOSIgc3R5bGU9InN0cm9rZTojMTgxODE4O3N0cm9rZS13aWR0aDoxOyIvPjxsaW5lIHN0eWxlPSJzdHJva2U6IzE4MTgxODtzdHJva2Utd2lkdGg6MjtzdHJva2UtZGFzaGFycmF5OjIuMCwyLjA7IiB4MT0iMTczIiB4Mj0iMzA2LjUiIHkxPSIxMzQ3LjQ2MDkiIHkyPSIxMzQ3LjQ2MDkiLz48dGV4dCBmaWxsPSIjMDAwMDAwIiBmb250LWZhbWlseT0ic2Fucy1zZXJpZiIgZm9udC1zaXplPSIxMyIgbGVuZ3RoQWRqdXN0PSJzcGFjaW5nIiB0ZXh0TGVuZ3RoPSI4NC41IiB4PSIxODAiIHk9IjEzNDMuODM1OSI+NC42OiAmIzMwODMwOyYjMzU3NDg7JiMyNTUwOTsmIzI1OTEwOzwvdGV4dD48L2c+PGcgY2xhc3M9Im1lc3NhZ2UiIGRhdGEtcGFydGljaXBhbnQtMT0iVUkiIGRhdGEtcGFydGljaXBhbnQtMj0iVXNlciI+PHBvbHlnb24gZmlsbD0iIzE4MTgxOCIgcG9pbnRzPSIzMywxMzcxLjM3NSwyMywxMzc1LjM3NSwzMywxMzc5LjM3NSwyOSwxMzc1LjM3NSIgc3R5bGU9InN0cm9rZTojMTgxODE4O3N0cm9rZS13aWR0aDoxOyIvPjxsaW5lIHN0eWxlPSJzdHJva2U6IzE4MTgxODtzdHJva2Utd2lkdGg6MjtzdHJva2UtZGFzaGFycmF5OjIuMCwyLjA7IiB4MT0iMjciIHgyPSIxNjIiIHkxPSIxMzc1LjM3NSIgeTI9IjEzNzUuMzc1Ii8+PHRleHQgZmlsbD0iIzAwMDAwMCIgZm9udC1mYW1pbHk9InNhbnMtc2VyaWYiIGZvbnQtc2l6ZT0iMTMiIGxlbmd0aEFkanVzdD0ic3BhY2luZyIgdGV4dExlbmd0aD0iMTEwLjUiIHg9IjM5IiB5PSIxMzcxLjc1Ij40Ljc6ICYjMjYxNzQ7JiMzMTAzNDsmIzI2MzY4OyYjMzI0NTY7JiMyNTEwNDsmIzMyNDg5OzwvdGV4dD48L2c+PGcgY2xhc3M9Im1lc3NhZ2UiIGRhdGEtcGFydGljaXBhbnQtMT0iVXNlciIgZGF0YS1wYXJ0aWNpcGFudC0yPSJVSSI+PHBvbHlnb24gZmlsbD0iIzE4MTgxOCIgcG9pbnRzPSIxNTEsMTM5OS4yODkxLDE2MSwxNDAzLjI4OTEsMTUxLDE0MDcuMjg5MSwxNTUsMTQwMy4yODkxIiBzdHlsZT0ic3Ryb2tlOiMxODE4MTg7c3Ryb2tlLXdpZHRoOjE7Ii8+PGxpbmUgc3R5bGU9InN0cm9rZTojMTgxODE4O3N0cm9rZS13aWR0aDoyOyIgeDE9IjIyIiB4Mj0iMTU3IiB5MT0iMTQwMy4yODkxIiB5Mj0iMTQwMy4yODkxIi8+PHRleHQgZmlsbD0iIzAwMDAwMCIgZm9udC1mYW1pbHk9InNhbnMtc2VyaWYiIGZvbnQtc2l6ZT0iMTMiIGxlbmd0aEFkanVzdD0ic3BhY2luZyIgdGV4dExlbmd0aD0iMTEwLjUiIHg9IjI5IiB5PSIxMzk5LjY2NDEiPjQuODogJiMzNjg3MzsmIzI1MzIxOyYjMjE1MTg7JiMzMjQ5MzsmIzI1ODA1OyYjMjAzMTY7PC90ZXh0PjwvZz48ZyBjbGFzcz0ibWVzc2FnZSIgZGF0YS1wYXJ0aWNpcGFudC0xPSJVSSIgZGF0YS1wYXJ0aWNpcGFudC0yPSJHYW1lTWdyIj48cG9seWdvbiBmaWxsPSIjMTgxODE4IiBwb2ludHM9IjI5NS41LDE0MjcuMjAzMSwzMDUuNSwxNDMxLjIwMzEsMjk1LjUsMTQzNS4yMDMxLDI5OS41LDE0MzEuMjAzMSIgc3R5bGU9InN0cm9rZTojMTgxODE4O3N0cm9rZS13aWR0aDoxOyIvPjxsaW5lIHN0eWxlPSJzdHJva2U6IzE4MTgxODtzdHJva2Utd2lkdGg6MjsiIHgxPSIxNzMiIHgyPSIzMDEuNSIgeTE9IjE0MzEuMjAzMSIgeTI9IjE0MzEuMjAzMSIvPjx0ZXh0IGZpbGw9IiMwMDAwMDAiIGZvbnQtZmFtaWx5PSJzYW5zLXNlcmlmIiBmb250LXNpemU9IjEzIiBsZW5ndGhBZGp1c3Q9InNwYWNpbmciIHRleHRMZW5ndGg9IjExMC41IiB4PSIxODAiIHk9IjE0MjcuNTc4MSI+NC45OiAmIzIwMjU2OyYjMzY4ODI7JiMyOTk5MjsmIzI1MTQzOyYjMzY4NzM7JiMyNTMyMTs8L3RleHQ+PC9nPjxnIGNsYXNzPSJtZXNzYWdlIiBkYXRhLXBhcnRpY2lwYW50LTE9IkdhbWVNZ3IiIGRhdGEtcGFydGljaXBhbnQtMj0iVUkiPjxwb2x5Z29uIGZpbGw9IiMxODE4MTgiIHBvaW50cz0iMTg0LDE0NTUuMTE3MiwxNzQsMTQ1OS4xMTcyLDE4NCwxNDYzLjExNzIsMTgwLDE0NTkuMTE3MiIgc3R5bGU9InN0cm9rZTojMTgxODE4O3N0cm9rZS13aWR0aDoxOyIvPjxsaW5lIHN0eWxlPSJzdHJva2U6IzE4MTgxODtzdHJva2Utd2lkdGg6MjtzdHJva2UtZGFzaGFycmF5OjIuMCwyLjA7IiB4MT0iMTc4IiB4Mj0iMzExLjUiIHkxPSIxNDU5LjExNzIiIHkyPSIxNDU5LjExNzIiLz48dGV4dCBmaWxsPSIjMDAwMDAwIiBmb250LWZhbWlseT0ic2Fucy1zZXJpZiIgZm9udC1zaXplPSIxMyIgbGVuZ3RoQWRqdXN0PSJzcGFjaW5nIiB0ZXh0TGVuZ3RoPSIxMDQiIHg9IjE5MCIgeT0iMTQ1NS40OTIyIj40LjEwOiAmIzM2ODIwOyYjMjIyMzg7JiMyMDAyNzsmIzMzNzU2OyYjMjEzMzM7PC90ZXh0PjwvZz48ZyBjbGFzcz0ibWVzc2FnZSIgZGF0YS1wYXJ0aWNpcGFudC0xPSJVSSIgZGF0YS1wYXJ0aWNpcGFudC0yPSJVc2VyIj48cG9seWdvbiBmaWxsPSIjMTgxODE4IiBwb2ludHM9IjMzLDE0ODMuMDMxMywyMywxNDg3LjAzMTMsMzMsMTQ5MS4wMzEzLDI5LDE0ODcuMDMxMyIgc3R5bGU9InN0cm9rZTojMTgxODE4O3N0cm9rZS13aWR0aDoxOyIvPjxsaW5lIHN0eWxlPSJzdHJva2U6IzE4MTgxODtzdHJva2Utd2lkdGg6MjtzdHJva2UtZGFzaGFycmF5OjIuMCwyLjA7IiB4MT0iMjciIHgyPSIxNjciIHkxPSIxNDg3LjAzMTMiIHkyPSIxNDg3LjAzMTMiLz48dGV4dCBmaWxsPSIjMDAwMDAwIiBmb250LWZhbWlseT0ic2Fucy1zZXJpZiIgZm9udC1zaXplPSIxMyIgbGVuZ3RoQWRqdXN0PSJzcGFjaW5nIiB0ZXh0TGVuZ3RoPSIxMTciIHg9IjM5IiB5PSIxNDgzLjQwNjMiPjQuMTE6ICYjMjYzNTY7JiMyNjAzMjsmIzMwMDI4OyYjMzg3NTQ7JiMyNjE3NDsmIzMxMDM0OzwvdGV4dD48L2c+PCEtLVNSQz1bWkxQREp6ajA0QnRkTHJaU1lxZmlJWGk5ZjhmQTVPVlV1MFRPbUllSGE1MGRqRFU0algwV0cwZzFXV1c0cWoxMDlHb3FWMUt0eTZVb1EtVFZUN1RkUlEtVE83QW85Uy1SY1Bydnh3dEphdWRhWkFnaHFyOVEtcDJoOVVGUVFyckZWSGdUSUNHZGFyZXdCS0taUUpUNEp5cWNuLUNmRlFkZktkeWFlaU9wQUx0Z2lLaDdFN19KOHdiZlFJb2p3SDRJY3FkNDRwRGdDYUMtUlhQUVVyTHFDR1ZWSF9uVnlVcWpwZ3pQbmc1TGQ0U3hub3BjaEpnamxOaVZJNkZOci10NXR0WXJabEJOSmszbVhBZUZQX0lmRzZKWms5TlJ5QVNTclROdVA1akVndGdFcl9VakZ3UGJMWTFYUWNlZ2FLd2FhZTRjRHlfbllrN0YtNFJEZzNIWFA3MUdpWXpfYWxFdFZYTmlpcm5oLW5lUkx6QldPMkgyUG80ejZvOWRaYWJ6bE5xbm9UZW5LTUZKRmhsMTV0RHFUZWNGUWFRWjhuYVJlTjd5dDNHdTZmRkdzaFRNRFdUOVduMWRHbG45bVJtVjJmUFo0Z3VTc01UTHMwanF4dTZUcGxhcDA1TzhVQjVrN25RV2lYVmJSeDBfOWphRjlSSXgzczZNa083dG92NW5oUXNBc3c4eFkxUzF3RDhycGtQNGc3Q3dFWE1BOGNFYWswN0lzVlF6TFJqaHRmZjBBWDU0ZmFYTjBObjIyX0VlamwzOEFnOXE1UXRpOGJ1LVdNWlJrQlNRSGpYMmVkR1hVQXRPbEFqclhlR2o5NGVOV2ZPRXg0UTNXdy0gLXVCallvNEJ5ZkhMZE5lM1p3bW1SelAyaDM4ZWRncUJ2RkxIVkhlS2pLOTVOc2JNR3luOGlKZlY1QzMxSVAxSG1sWVdNVHBDOHJIc3JxR0czT2RMR3ZrZVBnZHhzVWQycndSbTRVdFg5YkNDbVpfTldQV1lJQlRoeElZWlYza3A4RENBRnZteExrM3M1aXlyLUE1QXpUNlFSSkRhNlNOWFpmVGFlVC0yUGpvc1A0Z3R2eHcyTE5HVWhtdU01ZmJhQk5QV1ZKeU1fVXVjdHBjNWpONXMtUUNWYVEzWUwtdXlpbGJlNkJuR0FrTFJlbGhNMWdHYUdLcEktU29DNTRuM1kweHN2b2xWNVlzSm9ZV2VEa3JJRzZQa09CeUF2dUFJWENsSXVBM0NZYklnNDB0R3laOGphT3RRbnFKS05QU2VkcGNBTWcxaWsyYk9XMHhMT3J2bUpKdmNwbHRtVjlIRTNHMUJocUIyRHNiRS1BLXdXWm4xQzc1dngxY1U4RmFsV0w5UlQzT2hweHNHN0ZhYUhmRThfanJLbzd2NUtsY1lQOXhQbkpjdkFHTEIyRERybkFFbkVESWs0V3BtZjRBZWhMclFPcVh4c3FFYXN0bUdodERxcmdKMlBpTWtJUndFR1FfeHpJWm9jeS04S3B5SVhQMVZ0OVNuU09WT0RiNlVPODY2dVlWWWg0UTcxTmw3ZzRJdlRGc2J2WWRVdnVkQk1DbER5NkFBSEFMRy1TNnNZdWdmYmRkOHgycm9MMmZLOEUxWnlWVzBhUDJia1ZnZURGZ0hScXJ1aGV2TkRCWmZkYVcwZ0N2azZPX1lQekh5MF0tLT48L2c+PC9zdmc+;" parent="1" vertex="1">
            <mxGeometry x="-90" y="-750" width="1004" height="1584" as="geometry" />
          </mxCell>
        </UserObject>
      </root>
    </mxGraphModel>
  </diagram>
</mxfile>
